<svg xmlns="http://www.w3.org/2000/svg" version="1.1" xmlns:xlink="http://www.w3.org/1999/xlink" xmlns:svgjs="http://svgjs.dev/svgjs" viewBox="0 0 17.72871100484358 3.245361333447538"><g transform="matrix(1,0,0,1,0.5859251837367268,0.6322438420185043)"><g><path d=" M 0.399 1.14 Q 0.3045 1.14 0.23775000000000002 1.122 Q 0.171 1.104 0.1005 1.0695 L 0.0855 0.8220000000000001 L 0.1095 0.8220000000000001 L 0.189 0.9855 Q 0.2415 1.029 0.2925 1.0485 Q 0.3435 1.068 0.3945 1.068 Q 0.4815 1.068 0.5317500000000001 1.023 Q 0.582 0.978 0.582 0.9 Q 0.582 0.8385 0.55425 0.80175 Q 0.5265 0.765 0.47175 0.73575 Q 0.417 0.7065 0.3375 0.6675 Q 0.231 0.6164999999999999 0.17400000000000002 0.56025 Q 0.117 0.504 0.117 0.402 Q 0.117 0.348 0.14325000000000002 0.29774999999999996 Q 0.1695 0.24749999999999994 0.2145 0.20775 Q 0.2595 0.16799999999999993 0.315 0.14400000000000002 Q 0.3705 0.11999999999999988 0.4305 0.11999999999999988 Q 0.501 0.11999999999999988 0.5625 0.13649999999999995 Q 0.624 0.15300000000000002 0.684 0.1845 L 0.6990000000000001 0.4245 L 0.675 0.4245 L 0.597 0.264 Q 0.549 0.22650000000000003 0.51 0.20999999999999996 Q 0.47100000000000003 0.1935 0.4215 0.1935 Q 0.357 0.1935 0.31425000000000003 0.237 Q 0.2715 0.28049999999999997 0.2715 0.34650000000000003 Q 0.2715 0.42000000000000004 0.31725000000000003 0.46199999999999997 Q 0.363 0.504 0.465 0.5519999999999999 Q 0.555 0.5955 0.61425 0.63525 Q 0.6735 0.675 0.7020000000000001 0.7244999999999999 Q 0.7305 0.774 0.7305 0.8505 Q 0.7305 0.921 0.7005 0.975 Q 0.6705 1.029 0.621 1.06575 Q 0.5715 1.1025 0.51375 1.12125 Q 0.456 1.14 0.399 1.14 M 1.243496337890625 1.14 Q 1.096496337890625 1.14 1.010996337890625 1.0515 Q 0.925496337890625 0.963 0.925496337890625 0.8160000000000001 Q 0.925496337890625 0.7050000000000001 0.971246337890625 0.618 Q 1.016996337890625 0.531 1.092746337890625 0.48224999999999996 Q 1.168496337890625 0.4335 1.256996337890625 0.4335 Q 1.376996337890625 0.4335 1.444496337890625 0.51525 Q 1.5119963378906252 0.597 1.513496337890625 0.75 L 1.505996337890625 0.7575000000000001 L 1.063496337890625 0.7575000000000001 Q 1.064996337890625 0.8265 1.0897463378906251 0.885 Q 1.114496337890625 0.9435 1.169246337890625 0.9795 Q 1.223996337890625 1.0155 1.316996337890625 1.0155 Q 1.402496337890625 1.0155 1.510496337890625 0.9585 L 1.514996337890625 0.9585 L 1.514996337890625 0.9765 Q 1.478996337890625 1.0455 1.408496337890625 1.09275 Q 1.337996337890625 1.14 1.243496337890625 1.14 M 1.2299963378906251 0.49949999999999994 Q 1.163996337890625 0.49949999999999994 1.121246337890625 0.5489999999999999 Q 1.078496337890625 0.5985 1.066496337890625 0.6885 L 1.385996337890625 0.6885 Q 1.3709963378906251 0.5865 1.331996337890625 0.543 Q 1.292996337890625 0.49949999999999994 1.2299963378906251 0.49949999999999994 M 1.8390380859374997 1.14 Q 1.7670380859375 1.14 1.7197880859374999 1.09725 Q 1.6725380859374999 1.0545 1.6725380859374999 0.9795 Q 1.6725380859374999 0.906 1.7257880859374999 0.85275 Q 1.7790380859375 0.7995 1.9110380859374998 0.768 L 2.0535380859375 0.735 L 2.0535380859375 0.63 Q 2.0535380859375 0.576 2.0137880859374997 0.54 Q 1.9740380859374997 0.504 1.9215380859374998 0.504 Q 1.8660380859374999 0.504 1.8442880859375 0.5325 Q 1.8225380859374998 0.5609999999999999 1.8225380859374998 0.6105 L 1.8225380859374998 0.6585 L 1.8150380859374997 0.6659999999999999 L 1.7325380859374997 0.6659999999999999 Q 1.7100380859374997 0.6659999999999999 1.7017880859374999 0.6577500000000001 Q 1.6935380859374998 0.6495 1.6935380859374998 0.6224999999999999 Q 1.6935380859374998 0.5895 1.7137880859374999 0.55575 Q 1.7340380859374998 0.522 1.7760380859374998 0.49649999999999994 Q 1.8210380859374997 0.46799999999999997 1.8675380859375 0.45075 Q 1.9140380859375 0.4335 1.9665380859374997 0.4335 Q 2.0235380859374996 0.4335 2.0767880859375 0.44925000000000004 Q 2.1300380859374997 0.46499999999999997 2.1630380859375 0.5025 Q 2.1960380859375 0.54 2.1960380859375 0.603 L 2.1960380859375 1.0215 Q 2.2065380859375 1.032 2.2252880859374997 1.0395 Q 2.2440380859375 1.047 2.2770380859375 1.047 L 2.3295380859374997 1.047 L 2.3355380859375 1.05 L 2.3355380859375 1.059 Q 2.3175380859374997 1.0905 2.2807880859375 1.11525 Q 2.2440380859375 1.14 2.1915380859374998 1.14 Q 2.1405380859375 1.14 2.1090380859374998 1.11525 Q 2.0775380859375 1.0905 2.0640380859375 1.047 L 2.0535380859375 1.047 Q 2.0145380859374997 1.086 1.9582880859374998 1.113 Q 1.9020380859375 1.14 1.8390380859374997 1.14 M 1.8090380859375 0.9465 Q 1.8090380859375 1.0395 1.9185380859374999 1.0395 Q 1.9515380859374998 1.0395 1.9822880859374998 1.03275 Q 2.0130380859374997 1.026 2.0535380859375 1.0095 L 2.0535380859375 0.7875 Q 1.9455380859374998 0.8085 1.8930380859374998 0.8325 Q 1.8405380859374998 0.8565 1.8247880859374999 0.88425 Q 1.8090380859375 0.912 1.8090380859375 0.9465 M 2.43453076171875 1.125 L 2.43453076171875 1.101 L 2.53053076171875 1.053 L 2.53053076171875 0.606 L 2.43903076171875 0.5295 L 2.43903076171875 0.5175 L 2.64603076171875 0.4335 L 2.65803076171875 0.4335 L 2.67153076171875 0.5625 L 2.67753076171875 0.5625 Q 2.71203076171875 0.5055 2.74053076171875 0.47775 Q 2.76903076171875 0.44999999999999996 2.79453076171875 0.44175 Q 2.82003076171875 0.4335 2.84703076171875 0.4335 Q 2.86053076171875 0.4335 2.87628076171875 0.43725 Q 2.89203076171875 0.44099999999999995 2.90253076171875 0.4455 Q 2.9205307617187497 0.45299999999999996 2.93403076171875 0.4635 Q 2.94753076171875 0.474 2.94753076171875 0.48749999999999993 Q 2.94753076171875 0.501 2.94153076171875 0.5145 L 2.91003076171875 0.594 L 2.89953076171875 0.594 L 2.84703076171875 0.573 Q 2.82903076171875 0.567 2.81253076171875 0.56475 Q 2.79603076171875 0.5625 2.77953076171875 0.5625 Q 2.71503076171875 0.5625 2.67303076171875 0.624 L 2.67303076171875 1.053 L 2.78253076171875 1.101 L 2.78253076171875 1.125 L 2.43453076171875 1.125 M 3.372018310546875 1.14 Q 3.226518310546875 1.14 3.141018310546875 1.0515 Q 3.055518310546875 0.963 3.055518310546875 0.8160000000000001 Q 3.055518310546875 0.7050000000000001 3.101268310546875 0.618 Q 3.147018310546875 0.531 3.226518310546875 0.48224999999999996 Q 3.3060183105468752 0.4335 3.408018310546875 0.4335 Q 3.4710183105468753 0.4335 3.528018310546875 0.45375 Q 3.585018310546875 0.474 3.615018310546875 0.507 Q 3.637518310546875 0.534 3.637518310546875 0.5519999999999999 Q 3.637518310546875 0.564 3.633768310546875 0.57075 Q 3.630018310546875 0.5775 3.619518310546875 0.588 L 3.558018310546875 0.6375 L 3.547518310546875 0.6375 L 3.4965183105468753 0.5685 Q 3.474018310546875 0.537 3.442518310546875 0.51825 Q 3.411018310546875 0.49949999999999994 3.363018310546875 0.49949999999999994 Q 3.2835183105468753 0.49949999999999994 3.238518310546875 0.5655 Q 3.193518310546875 0.6315 3.193518310546875 0.747 Q 3.193518310546875 0.8175 3.216768310546875 0.879 Q 3.240018310546875 0.9405 3.2947683105468752 0.978 Q 3.349518310546875 1.0155 3.444018310546875 1.0155 Q 3.486018310546875 1.0155 3.534018310546875 1.00125 Q 3.582018310546875 0.987 3.6360183105468753 0.9585 L 3.640518310546875 0.9585 L 3.640518310546875 0.9765 Q 3.606018310546875 1.0455 3.535518310546875 1.09275 Q 3.465018310546875 1.14 3.372018310546875 1.14 M 3.784524169921875 1.125 L 3.784524169921875 1.101 L 3.880524169921875 1.053 L 3.880524169921875 0.17099999999999993 L 3.789024169921875 0.09450000000000003 L 3.789024169921875 0.08250000000000002 L 4.011024169921875 0 L 4.021524169921875 0 L 4.021524169921875 0.5445 L 4.027524169921875 0.5445 Q 4.084524169921875 0.489 4.137024169921875 0.46124999999999994 Q 4.189524169921875 0.4335 4.255524169921875 0.4335 Q 4.342524169921875 0.4335 4.400274169921875 0.47775 Q 4.458024169921876 0.522 4.458024169921876 0.6105 L 4.458024169921876 1.053 L 4.552524169921875 1.101 L 4.552524169921875 1.125 L 4.216524169921875 1.125 L 4.216524169921875 1.101 L 4.315524169921876 1.0575 L 4.315524169921876 0.6795 Q 4.315524169921876 0.615 4.276524169921875 0.58275 Q 4.237524169921875 0.5505 4.176024169921876 0.5505 Q 4.138524169921875 0.5505 4.093524169921875 0.5625 Q 4.048524169921875 0.5745 4.021524169921875 0.6 L 4.021524169921875 1.0575 L 4.120524169921875 1.101 L 4.120524169921875 1.125 L 3.784524169921875 1.125 M 4.692064453125 0.792 L 4.692064453125 0.687 L 5.104564453125 0.687 L 5.104564453125 0.792 L 4.692064453125 0.792 M 5.278599609374999 1.125 L 5.278599609374999 1.101 L 5.400099609374999 1.041 L 5.400099609374999 0.22199999999999998 L 5.280099609374999 0.15900000000000003 L 5.280099609374999 0.135 L 5.515599609374999 0.135 L 6.090099609375 0.8414999999999999 L 6.090099609375 0.21750000000000003 L 5.935599609374999 0.15900000000000003 L 5.935599609374999 0.135 L 6.315099609374999 0.135 L 6.315099609374999 0.15900000000000003 L 6.195099609374999 0.21750000000000003 L 6.195099609374999 1.1325 L 6.1305996093749995 1.1325 L 5.505099609375 0.36449999999999994 L 5.505099609375 1.0425 L 5.659599609374999 1.101 L 5.659599609374999 1.125 L 5.278599609374999 1.125 M 6.487567382812499 0.792 L 6.487567382812499 0.687 L 6.900067382812499 0.687 L 6.900067382812499 0.792 L 6.487567382812499 0.792 M 7.389102539062499 1.14 Q 7.294602539062499 1.14 7.227852539062499 1.122 Q 7.161102539062499 1.104 7.090602539062499 1.0695 L 7.075602539062499 0.8220000000000001 L 7.099602539062499 0.8220000000000001 L 7.179102539062499 0.9855 Q 7.231602539062499 1.029 7.282602539062498 1.0485 Q 7.333602539062499 1.068 7.384602539062499 1.068 Q 7.4716025390624985 1.068 7.521852539062499 1.023 Q 7.572102539062499 0.978 7.572102539062499 0.9 Q 7.572102539062499 0.8385 7.544352539062499 0.80175 Q 7.516602539062498 0.765 7.461852539062499 0.73575 Q 7.407102539062499 0.7065 7.327602539062499 0.6675 Q 7.221102539062499 0.6164999999999999 7.164102539062499 0.56025 Q 7.107102539062499 0.504 7.107102539062499 0.402 Q 7.107102539062499 0.348 7.133352539062499 0.29774999999999996 Q 7.159602539062499 0.24749999999999994 7.204602539062499 0.20775 Q 7.249602539062499 0.16799999999999993 7.305102539062499 0.14400000000000002 Q 7.360602539062499 0.11999999999999988 7.420602539062499 0.11999999999999988 Q 7.491102539062499 0.11999999999999988 7.552602539062499 0.13649999999999995 Q 7.614102539062499 0.15300000000000002 7.674102539062499 0.1845 L 7.689102539062499 0.4245 L 7.665102539062499 0.4245 L 7.587102539062499 0.264 Q 7.539102539062499 0.22650000000000003 7.500102539062499 0.20999999999999996 Q 7.461102539062499 0.1935 7.411602539062499 0.1935 Q 7.347102539062499 0.1935 7.304352539062499 0.237 Q 7.2616025390624985 0.28049999999999997 7.2616025390624985 0.34650000000000003 Q 7.2616025390624985 0.42000000000000004 7.307352539062499 0.46199999999999997 Q 7.353102539062499 0.504 7.455102539062499 0.5519999999999999 Q 7.545102539062499 0.5955 7.604352539062499 0.63525 Q 7.663602539062499 0.675 7.692102539062499 0.7244999999999999 Q 7.720602539062499 0.774 7.720602539062499 0.8505 Q 7.720602539062499 0.921 7.690602539062499 0.975 Q 7.6606025390624986 1.029 7.6111025390624985 1.06575 Q 7.561602539062499 1.1025 7.503852539062499 1.12125 Q 7.446102539062499 1.14 7.389102539062499 1.14 M 8.233598876953124 1.14 Q 8.086598876953124 1.14 8.001098876953124 1.0515 Q 7.915598876953124 0.963 7.915598876953124 0.8160000000000001 Q 7.915598876953124 0.7050000000000001 7.9613488769531235 0.618 Q 8.007098876953124 0.531 8.082848876953124 0.48224999999999996 Q 8.158598876953123 0.4335 8.247098876953123 0.4335 Q 8.367098876953124 0.4335 8.434598876953123 0.51525 Q 8.502098876953124 0.597 8.503598876953124 0.75 L 8.496098876953123 0.7575000000000001 L 8.053598876953124 0.7575000000000001 Q 8.055098876953124 0.8265 8.079848876953124 0.885 Q 8.104598876953123 0.9435 8.159348876953123 0.9795 Q 8.214098876953123 1.0155 8.307098876953123 1.0155 Q 8.392598876953123 1.0155 8.500598876953124 0.9585 L 8.505098876953124 0.9585 L 8.505098876953124 0.9765 Q 8.469098876953124 1.0455 8.398598876953123 1.09275 Q 8.328098876953124 1.14 8.233598876953124 1.14 M 8.220098876953124 0.49949999999999994 Q 8.154098876953123 0.49949999999999994 8.111348876953123 0.5489999999999999 Q 8.068598876953123 0.5985 8.056598876953123 0.6885 L 8.376098876953124 0.6885 Q 8.361098876953124 0.5865 8.322098876953124 0.543 Q 8.283098876953124 0.49949999999999994 8.220098876953124 0.49949999999999994 M 8.661098144531248 1.125 L 8.661098144531248 1.101 L 8.757098144531248 1.053 L 8.757098144531248 0.606 L 8.665598144531248 0.5295 L 8.665598144531248 0.5175 L 8.87259814453125 0.4335 L 8.88459814453125 0.4335 L 8.898098144531248 0.5625 L 8.904098144531249 0.5625 Q 8.93859814453125 0.5055 8.96709814453125 0.47775 Q 8.995598144531249 0.44999999999999996 9.02109814453125 0.44175 Q 9.046598144531249 0.4335 9.07359814453125 0.4335 Q 9.087098144531248 0.4335 9.102848144531249 0.43725 Q 9.11859814453125 0.44099999999999995 9.129098144531248 0.4455 Q 9.147098144531249 0.45299999999999996 9.16059814453125 0.4635 Q 9.17409814453125 0.474 9.17409814453125 0.48749999999999993 Q 9.17409814453125 0.501 9.16809814453125 0.5145 L 9.136598144531249 0.594 L 9.12609814453125 0.594 L 9.07359814453125 0.573 Q 9.055598144531249 0.567 9.039098144531248 0.56475 Q 9.02259814453125 0.5625 9.006098144531249 0.5625 Q 8.94159814453125 0.5625 8.899598144531248 0.624 L 8.899598144531248 1.053 L 9.009098144531249 1.101 L 9.009098144531249 1.125 L 8.661098144531248 1.125 M 9.547585693359375 1.125 L 9.271585693359375 0.5175 L 9.172585693359375 0.47250000000000003 L 9.172585693359375 0.4485 L 9.546085693359375 0.4485 L 9.546085693359375 0.47250000000000003 L 9.427585693359374 0.516 L 9.427585693359374 0.525 L 9.612085693359374 0.9225 L 9.618085693359374 0.9225 L 9.780085693359375 0.5325 L 9.780085693359375 0.525 L 9.675085693359375 0.47250000000000003 L 9.675085693359375 0.4485 L 9.969085693359375 0.4485 L 9.969085693359375 0.47250000000000003 L 9.859585693359374 0.5235 L 9.585085693359375 1.125 L 9.547585693359375 1.125 M 10.333591552734376 1.14 Q 10.186591552734376 1.14 10.101091552734376 1.0515 Q 10.015591552734374 0.963 10.015591552734374 0.8160000000000001 Q 10.015591552734374 0.7050000000000001 10.061341552734376 0.618 Q 10.107091552734376 0.531 10.182841552734375 0.48224999999999996 Q 10.258591552734375 0.4335 10.347091552734375 0.4335 Q 10.467091552734376 0.4335 10.534591552734375 0.51525 Q 10.602091552734375 0.597 10.603591552734375 0.75 L 10.596091552734375 0.7575000000000001 L 10.153591552734376 0.7575000000000001 Q 10.155091552734376 0.8265 10.179841552734375 0.885 Q 10.204591552734374 0.9435 10.259341552734375 0.9795 Q 10.314091552734375 1.0155 10.407091552734375 1.0155 Q 10.492591552734375 1.0155 10.600591552734375 0.9585 L 10.605091552734375 0.9585 L 10.605091552734375 0.9765 Q 10.569091552734376 1.0455 10.498591552734375 1.09275 Q 10.428091552734376 1.14 10.333591552734376 1.14 M 10.320091552734375 0.49949999999999994 Q 10.254091552734375 0.49949999999999994 10.211341552734375 0.5489999999999999 Q 10.168591552734375 0.5985 10.156591552734374 0.6885 L 10.476091552734376 0.6885 Q 10.461091552734375 0.5865 10.422091552734376 0.543 Q 10.383091552734376 0.49949999999999994 10.320091552734375 0.49949999999999994" fill="#403b4b" fill-rule="nonzero"></path></g><g><path d=" M 2.335113619290861 1.5973846153846152 L 2.3737674654447076 1.5973846153846152 L 2.244536696213938 1.8979615384615383 L 2.2104982346754767 1.8979615384615383 L 2.147613619290861 1.7485384615384614 L 2.085305926983169 1.8979615384615383 L 2.0512674654447074 1.8979615384615383 L 1.9220366962139381 1.5973846153846152 L 1.9601136192908613 1.5973846153846152 L 2.0697290039062457 1.8575769230769228 L 2.125113619290861 1.7219999999999998 L 2.0743443885216304 1.5979615384615382 L 2.1095366962139384 1.5979615384615382 L 2.147613619290861 1.6954615384615384 L 2.1862674654447076 1.5979615384615382 L 2.220882850060092 1.5979615384615382 L 2.1706905423677845 1.7219999999999998 L 2.2260751577524 1.8575769230769228 L 2.335113619290861 1.5973846153846152 M 2.684145320012015 1.8979615384615383 L 2.644914550781246 1.8979615384615383 L 2.644914550781246 1.7300769230769228 Q 2.644914550781246 1.6793076923076922 2.62702993539663 1.653634615384615 Q 2.609145320012015 1.6279615384615382 2.5756837815504765 1.6279615384615382 Q 2.5537607046273996 1.6279615384615382 2.532126089242784 1.6392115384615382 Q 2.5104914738581687 1.6504615384615382 2.494049166165861 1.6697884615384613 Q 2.4776068584735533 1.6891153846153844 2.4706837815504765 1.7139230769230767 L 2.4706837815504765 1.8979615384615383 L 2.4314530123197073 1.8979615384615383 L 2.4314530123197073 1.476807692307692 L 2.4706837815504765 1.476807692307692 L 2.4706837815504765 1.6654615384615383 Q 2.488568396935092 1.6319999999999997 2.5205876277043227 1.6120961538461536 Q 2.5526068584735535 1.5921923076923075 2.588953012319707 1.5921923076923075 Q 2.6149145507812457 1.5921923076923075 2.6330876277043225 1.6014230769230766 Q 2.6512607046273997 1.610653846153846 2.6625107046273997 1.6282499999999998 Q 2.6737607046273997 1.6458461538461537 2.6789530123197074 1.6692115384615382 Q 2.684145320012015 1.6925769230769228 2.684145320012015 1.7219999999999998 L 2.684145320012015 1.8979615384615383 M 2.9033805964543227 1.903730769230769 Q 2.8710729041466307 1.903730769230769 2.843380596454323 1.891326923076923 Q 2.815688288762015 1.8789230769230767 2.7954959810697075 1.8572884615384613 Q 2.7753036733773997 1.8356538461538459 2.7640536733773997 1.8073846153846151 Q 2.7528036733773997 1.7791153846153844 2.7528036733773997 1.746807692307692 Q 2.7528036733773997 1.7046923076923075 2.772130596454323 1.6694999999999998 Q 2.791457519531246 1.634307692307692 2.8254959810697073 1.6132499999999999 Q 2.859534442608169 1.5921923076923075 2.9028036733773996 1.5921923076923075 Q 2.9472267503004765 1.5921923076923075 2.9803998272235535 1.6135384615384614 Q 3.0135729041466304 1.6348846153846153 3.032611365685092 1.6697884615384613 Q 3.0516498272235535 1.7046923076923075 3.0516498272235535 1.746230769230769 Q 3.0516498272235535 1.7508461538461537 3.0516498272235535 1.7551730769230767 Q 3.0516498272235535 1.7594999999999998 3.0510729041466305 1.7618076923076922 L 2.7937652118389384 1.7618076923076922 Q 2.7966498272235536 1.7941153846153843 2.8119382887620152 1.8192115384615382 Q 2.827226750300477 1.8443076923076922 2.8517459810697074 1.8590192307692306 Q 2.8762652118389385 1.873730769230769 2.905111365685092 1.873730769230769 Q 2.934534442608169 1.873730769230769 2.960784442608169 1.858730769230769 Q 2.987034442608169 1.843730769230769 2.9974190579927846 1.8194999999999997 L 3.031457519531246 1.828730769230769 Q 3.0222267503004767 1.850076923076923 3.003188288762015 1.8673846153846152 Q 2.9841498272235536 1.8846923076923074 2.9584767503004765 1.8942115384615383 Q 2.9328036733774 1.903730769230769 2.9033805964543227 1.903730769230769 M 2.792611365685092 1.7335384615384613 L 3.014726750300477 1.7335384615384613 Q 3.0124190579927843 1.7006538461538458 2.9971305964543227 1.6758461538461535 Q 2.9818421349158615 1.6510384615384612 2.9573229041466305 1.6369038461538459 Q 2.9328036733774 1.6227692307692305 2.9033805964543227 1.6227692307692305 Q 2.873957519531246 1.6227692307692305 2.849726750300477 1.6369038461538459 Q 2.8254959810697073 1.6510384615384612 2.8102075195312457 1.676134615384615 Q 2.7949190579927845 1.701230769230769 2.792611365685092 1.7335384615384613 M 3.2679816143329288 1.6319999999999997 Q 3.2287508451021596 1.633153846153846 3.1990393066406213 1.6539230769230766 Q 3.1693277681790826 1.6746923076923075 3.157212383563698 1.7110384615384613 L 3.157212383563698 1.8979615384615383 L 3.117981614332929 1.8979615384615383 L 3.117981614332929 1.5973846153846152 L 3.154904691256006 1.5973846153846152 L 3.154904691256006 1.6694999999999998 Q 3.1704816143329286 1.6377692307692304 3.1961546912560057 1.618153846153846 Q 3.221827768179083 1.5985384615384612 3.2506739220252365 1.5962307692307691 Q 3.2564431527944673 1.5956538461538459 3.2607700758713904 1.5956538461538459 Q 3.2650969989483136 1.5956538461538459 3.2679816143329288 1.5962307692307691 L 3.2679816143329288 1.6319999999999997 M 3.4468404447115346 1.903730769230769 Q 3.4145327524038427 1.903730769230769 3.386840444711535 1.891326923076923 Q 3.3591481370192273 1.8789230769230767 3.3389558293269195 1.8572884615384613 Q 3.3187635216346116 1.8356538461538459 3.3075135216346117 1.8073846153846151 Q 3.2962635216346117 1.7791153846153844 3.2962635216346117 1.746807692307692 Q 3.2962635216346117 1.7046923076923075 3.315590444711535 1.6694999999999998 Q 3.334917367788458 1.634307692307692 3.3689558293269193 1.6132499999999999 Q 3.4029942908653807 1.5921923076923075 3.4462635216346116 1.5921923076923075 Q 3.4906865985576885 1.5921923076923075 3.5238596754807654 1.6135384615384614 Q 3.5570327524038423 1.6348846153846153 3.576071213942304 1.6697884615384613 Q 3.5951096754807654 1.7046923076923075 3.5951096754807654 1.746230769230769 Q 3.5951096754807654 1.7508461538461537 3.5951096754807654 1.7551730769230767 Q 3.5951096754807654 1.7594999999999998 3.5945327524038424 1.7618076923076922 L 3.3372250600961504 1.7618076923076922 Q 3.3401096754807655 1.7941153846153843 3.355398137019227 1.8192115384615382 Q 3.370686598557689 1.8443076923076922 3.3952058293269194 1.8590192307692306 Q 3.41972506009615 1.873730769230769 3.448571213942304 1.873730769230769 Q 3.477994290865381 1.873730769230769 3.504244290865381 1.858730769230769 Q 3.530494290865381 1.843730769230769 3.540878906249996 1.8194999999999997 L 3.574917367788458 1.828730769230769 Q 3.5656865985576887 1.850076923076923 3.5466481370192273 1.8673846153846152 Q 3.5276096754807655 1.8846923076923074 3.5019365985576885 1.8942115384615383 Q 3.476263521634612 1.903730769230769 3.4468404447115346 1.903730769230769 M 3.336071213942304 1.7335384615384613 L 3.558186598557689 1.7335384615384613 Q 3.5558789062499963 1.7006538461538458 3.540590444711535 1.6758461538461535 Q 3.5253019831730734 1.6510384615384612 3.5007827524038424 1.6369038461538459 Q 3.476263521634612 1.6227692307692305 3.4468404447115346 1.6227692307692305 Q 3.417417367788458 1.6227692307692305 3.393186598557689 1.6369038461538459 Q 3.3689558293269193 1.6510384615384612 3.353667367788458 1.676134615384615 Q 3.3383789062499964 1.701230769230769 3.336071213942304 1.7335384615384613 M 3.81607262244591 1.9902692307692305 Q 3.824149545522833 1.9908461538461537 3.831649545522833 1.9911346153846152 Q 3.839149545522833 1.9914230769230767 3.8426110839843717 1.9902692307692305 Q 3.8495341609074485 1.9891153846153844 3.8558803147536023 1.9821923076923076 Q 3.862226468599756 1.9752692307692306 3.8708803147536024 1.955653846153846 Q 3.8795341609074487 1.9360384615384614 3.8951110839843714 1.8979615384615383 L 3.7641495455228333 1.5973846153846152 L 3.8056880070612946 1.5973846153846152 L 3.9158803147536023 1.8575769230769228 L 4.017418776292064 1.5973846153846152 L 4.056649545522833 1.5973846153846152 L 3.900880314753602 1.985076923076923 Q 3.896841853215141 1.9960384615384614 3.8887649301382177 2.005557692307692 Q 3.880688007061295 2.015076923076923 3.868861083984372 2.020557692307692 Q 3.8570341609074483 2.0260384615384615 3.839726468599756 2.0266153846153845 Q 3.8345341609074484 2.0271923076923075 3.829053391676679 2.026903846153846 Q 3.82357262244591 2.0266153846153845 3.81607262244591 2.0254615384615384 L 3.81607262244591 1.9902692307692305 M 4.234347768930285 1.903730769230769 Q 4.202040076622593 1.903730769230769 4.174636230468747 1.891326923076923 Q 4.147232384314901 1.8789230769230767 4.127328538161054 1.8572884615384613 Q 4.107424692007208 1.8356538461538459 4.0964631535456695 1.8076730769230767 Q 4.085501615084131 1.7796923076923075 4.085501615084131 1.7485384615384614 Q 4.085501615084131 1.716230769230769 4.0964631535456695 1.6882499999999998 Q 4.107424692007208 1.6602692307692306 4.127616999699516 1.6386346153846152 Q 4.147809307391824 1.6169999999999998 4.17521315354567 1.6045961538461535 Q 4.202616999699516 1.5921923076923075 4.234924692007208 1.5921923076923075 Q 4.267232384314901 1.5921923076923075 4.294347768930285 1.6045961538461535 Q 4.321463153545669 1.6169999999999998 4.341655461237977 1.6386346153846152 Q 4.361847768930285 1.6602692307692306 4.372809307391823 1.6882499999999998 Q 4.383770845853362 1.716230769230769 4.383770845853362 1.7485384615384614 Q 4.383770845853362 1.7796923076923075 4.372809307391823 1.8076730769230767 Q 4.361847768930285 1.8356538461538459 4.341943922776439 1.8572884615384613 Q 4.322040076622592 1.8789230769230767 4.294636230468747 1.891326923076923 Q 4.267232384314901 1.903730769230769 4.234347768930285 1.903730769230769 M 4.125309307391824 1.7491153846153844 Q 4.125309307391824 1.7825769230769228 4.140020845853361 1.809980769230769 Q 4.1547323843149 1.8373846153846152 4.179540076622593 1.8532499999999998 Q 4.204347768930285 1.8691153846153845 4.234347768930285 1.8691153846153845 Q 4.264347768930285 1.8691153846153845 4.289155461237978 1.8529615384615383 Q 4.31396315354567 1.8368076923076921 4.328963153545669 1.808826923076923 Q 4.343963153545669 1.7808461538461535 4.343963153545669 1.7479615384615381 Q 4.343963153545669 1.7144999999999997 4.328963153545669 1.686807692307692 Q 4.31396315354567 1.6591153846153843 4.289155461237978 1.6429615384615381 Q 4.264347768930285 1.626807692307692 4.234347768930285 1.626807692307692 Q 4.204347768930285 1.626807692307692 4.179828538161054 1.6435384615384612 Q 4.155309307391823 1.6602692307692306 4.140309307391823 1.6876730769230768 Q 4.125309307391824 1.715076923076923 4.125309307391824 1.7491153846153844 M 4.452407789963939 1.7739230769230767 L 4.452407789963939 1.5973846153846152 L 4.4916385591947074 1.5973846153846152 L 4.4916385591947074 1.767 Q 4.4916385591947074 1.8183461538461536 4.509234713040861 1.843730769230769 Q 4.526830866887015 1.8691153846153845 4.5614462515024 1.8691153846153845 Q 4.584523174579323 1.8691153846153845 4.606157789963938 1.8590192307692306 Q 4.627792405348554 1.8489230769230767 4.644523174579323 1.8301730769230766 Q 4.661253943810093 1.8114230769230768 4.669907789963938 1.7866153846153845 L 4.669907789963938 1.5973846153846152 L 4.709138559194708 1.5973846153846152 L 4.709138559194708 1.850653846153846 Q 4.709138559194708 1.858730769230769 4.712600097656246 1.862480769230769 Q 4.716061636117785 1.866230769230769 4.722984713040861 1.8668076923076922 L 4.722984713040861 1.8979615384615383 Q 4.716061636117785 1.8985384615384613 4.712023174579323 1.8988269230769228 Q 4.707984713040862 1.8991153846153843 4.7045231745793235 1.8991153846153843 Q 4.692984713040861 1.8979615384615383 4.684619328425477 1.8898846153846152 Q 4.676253943810092 1.881807692307692 4.675677020733169 1.8702692307692306 L 4.674523174579323 1.829884615384615 Q 4.654907789963938 1.8644999999999998 4.621157789963938 1.8841153846153844 Q 4.5874077899639385 1.903730769230769 4.548177020733169 1.903730769230769 Q 4.500869328425477 1.903730769230769 4.476638559194708 1.8708461538461536 Q 4.452407789963939 1.8379615384615382 4.452407789963939 1.7739230769230767 M 4.953750563401439 1.6319999999999997 Q 4.914519794170669 1.633153846153846 4.884808255709131 1.6539230769230766 Q 4.8550967172475925 1.6746923076923075 4.842981332632207 1.7110384615384613 L 4.842981332632207 1.8979615384615383 L 4.803750563401438 1.8979615384615383 L 4.803750563401438 1.5973846153846152 L 4.840673640324515 1.5973846153846152 L 4.840673640324515 1.6694999999999998 Q 4.856250563401439 1.6377692307692304 4.881923640324516 1.618153846153846 Q 4.907596717247592 1.5985384615384612 4.936442871093746 1.5962307692307691 Q 4.942212101862976 1.5956538461538459 4.9465390249398995 1.5956538461538459 Q 4.950865948016823 1.5956538461538459 4.953750563401439 1.5962307692307691 L 4.953750563401439 1.6319999999999997 M 5.4043319936899 1.8979615384615383 L 5.3651012244591305 1.8979615384615383 L 5.3651012244591305 1.7300769230769228 Q 5.3651012244591305 1.6769999999999998 5.349524301382208 1.652480769230769 Q 5.333947378305284 1.6279615384615382 5.300485839843746 1.6279615384615382 Q 5.277408916766823 1.6279615384615382 5.254908916766823 1.6392115384615382 Q 5.232408916766823 1.6504615384615382 5.215389685997592 1.6697884615384613 Q 5.198370455228361 1.6891153846153844 5.190870455228361 1.7139230769230767 L 5.190870455228361 1.8979615384615383 L 5.151639685997592 1.8979615384615383 L 5.151639685997592 1.5973846153846152 L 5.187408916766823 1.5973846153846152 L 5.187408916766823 1.6654615384615383 Q 5.1995243013822074 1.6435384615384612 5.219139685997592 1.6270961538461537 Q 5.238755070612977 1.610653846153846 5.263562762920669 1.6014230769230766 Q 5.288370455228361 1.5921923076923075 5.314908916766823 1.5921923076923075 Q 5.339716609074515 1.5921923076923075 5.357024301382208 1.6014230769230766 Q 5.3743319936899 1.610653846153846 5.384716609074515 1.6276730769230767 Q 5.395101224459131 1.6446923076923075 5.399716609074515 1.6686346153846152 Q 5.4043319936899 1.6925769230769228 5.4043319936899 1.7219999999999998 L 5.4043319936899 1.8979615384615383 M 5.623567270132208 1.903730769230769 Q 5.591259577824515 1.903730769230769 5.563567270132207 1.891326923076923 Q 5.5358749624399 1.8789230769230767 5.515682654747592 1.8572884615384613 Q 5.495490347055284 1.8356538461538459 5.484240347055285 1.8073846153846151 Q 5.472990347055284 1.7791153846153844 5.472990347055284 1.746807692307692 Q 5.472990347055284 1.7046923076923075 5.492317270132207 1.6694999999999998 Q 5.511644193209131 1.634307692307692 5.545682654747592 1.6132499999999999 Q 5.579721116286054 1.5921923076923075 5.622990347055285 1.5921923076923075 Q 5.667413423978362 1.5921923076923075 5.700586500901438 1.6135384615384614 Q 5.733759577824515 1.6348846153846153 5.752798039362976 1.6697884615384613 Q 5.771836500901438 1.7046923076923075 5.771836500901438 1.746230769230769 Q 5.771836500901438 1.7508461538461537 5.771836500901438 1.7551730769230767 Q 5.771836500901438 1.7594999999999998 5.771259577824515 1.7618076923076922 L 5.513951885516823 1.7618076923076922 Q 5.516836500901438 1.7941153846153843 5.5321249624399 1.8192115384615382 Q 5.5474134239783615 1.8443076923076922 5.5719326547475925 1.8590192307692306 Q 5.596451885516823 1.873730769230769 5.625298039362977 1.873730769230769 Q 5.654721116286054 1.873730769230769 5.680971116286053 1.858730769230769 Q 5.707221116286053 1.843730769230769 5.717605731670669 1.8194999999999997 L 5.75164419320913 1.828730769230769 Q 5.742413423978361 1.850076923076923 5.7233749624399 1.8673846153846152 Q 5.704336500901438 1.8846923076923074 5.678663423978361 1.8942115384615383 Q 5.652990347055284 1.903730769230769 5.623567270132208 1.903730769230769 M 5.512798039362977 1.7335384615384613 L 5.7349134239783615 1.7335384615384613 Q 5.732605731670669 1.7006538461538458 5.717317270132208 1.6758461538461535 Q 5.702028808593746 1.6510384615384612 5.677509577824515 1.6369038461538459 Q 5.652990347055284 1.6227692307692305 5.623567270132208 1.6227692307692305 Q 5.5941441932091305 1.6227692307692305 5.569913423978361 1.6369038461538459 Q 5.545682654747592 1.6510384615384612 5.530394193209131 1.676134615384615 Q 5.515105731670669 1.701230769230769 5.512798039362977 1.7335384615384613 M 5.9679759803185055 1.903730769230769 Q 5.935668288010813 1.903730769230769 5.907975980318505 1.891326923076923 Q 5.880283672626198 1.8789230769230767 5.86009136493389 1.8572884615384613 Q 5.839899057241582 1.8356538461538459 5.8286490572415826 1.8073846153846151 Q 5.817399057241582 1.7791153846153844 5.817399057241582 1.746807692307692 Q 5.817399057241582 1.7046923076923075 5.836725980318505 1.6694999999999998 Q 5.856052903395429 1.634307692307692 5.89009136493389 1.6132499999999999 Q 5.924129826472352 1.5921923076923075 5.9673990572415825 1.5921923076923075 Q 6.011822134164659 1.5921923076923075 6.044995211087736 1.6135384615384614 Q 6.078168288010813 1.6348846153846153 6.097206749549274 1.6697884615384613 Q 6.116245211087736 1.7046923076923075 6.116245211087736 1.746230769230769 Q 6.116245211087736 1.7508461538461537 6.116245211087736 1.7551730769230767 Q 6.116245211087736 1.7594999999999998 6.115668288010813 1.7618076923076922 L 5.858360595703121 1.7618076923076922 Q 5.861245211087736 1.7941153846153843 5.876533672626198 1.8192115384615382 Q 5.891822134164659 1.8443076923076922 5.91634136493389 1.8590192307692306 Q 5.94086059570312 1.873730769230769 5.969706749549275 1.873730769230769 Q 5.999129826472352 1.873730769230769 6.025379826472351 1.858730769230769 Q 6.051629826472351 1.843730769230769 6.062014441856967 1.8194999999999997 L 6.096052903395428 1.828730769230769 Q 6.08682213416466 1.850076923076923 6.067783672626198 1.8673846153846152 Q 6.048745211087736 1.8846923076923074 6.023072134164659 1.8942115384615383 Q 5.997399057241582 1.903730769230769 5.9679759803185055 1.903730769230769 M 5.857206749549275 1.7335384615384613 L 6.079322134164659 1.7335384615384613 Q 6.077014441856967 1.7006538461538458 6.0617259803185055 1.6758461538461535 Q 6.046437518780044 1.6510384615384612 6.021918288010813 1.6369038461538459 Q 5.997399057241582 1.6227692307692305 5.9679759803185055 1.6227692307692305 Q 5.938552903395428 1.6227692307692305 5.914322134164659 1.6369038461538459 Q 5.89009136493389 1.6510384615384612 5.8748029033954285 1.676134615384615 Q 5.859514441856967 1.701230769230769 5.857206749549275 1.7335384615384613 M 6.162384690504803 1.7485384615384614 Q 6.162384690504803 1.7058461538461536 6.179980844350957 1.6703653846153843 Q 6.1975769981971105 1.6348846153846153 6.228730844350957 1.6135384615384614 Q 6.259884690504803 1.5921923076923075 6.299692382812496 1.5921923076923075 Q 6.337192382812495 1.5921923076923075 6.366903921274034 1.6120961538461536 Q 6.396615459735572 1.6319999999999997 6.413346228966342 1.6602692307692306 L 6.413346228966342 1.476807692307692 L 6.45257699819711 1.476807692307692 L 6.45257699819711 1.850653846153846 Q 6.45257699819711 1.858730769230769 6.4560385366586495 1.862480769230769 Q 6.459500075120188 1.866230769230769 6.466423152043265 1.8668076923076922 L 6.466423152043265 1.8979615384615383 Q 6.454884690504803 1.8996923076923076 6.448538536658649 1.8991153846153843 Q 6.436423152043265 1.8985384615384613 6.427192382812495 1.8893076923076921 Q 6.417961613581726 1.8800769230769228 6.417961613581726 1.8691153846153845 L 6.417961613581726 1.8396923076923075 Q 6.400076998197111 1.8691153846153845 6.369500075120188 1.8864230769230768 Q 6.3389231520432645 1.903730769230769 6.306038536658649 1.903730769230769 Q 6.274884690504803 1.903730769230769 6.248634690504803 1.8910384615384612 Q 6.2223846905048035 1.8783461538461537 6.20305776742788 1.8564230769230767 Q 6.183730844350957 1.8344999999999998 6.17305776742788 1.8065192307692306 Q 6.162384690504803 1.7785384615384614 6.162384690504803 1.7485384615384614 M 6.413346228966342 1.7946923076923076 L 6.413346228966342 1.7018076923076921 Q 6.405846228966341 1.6810384615384613 6.389115459735573 1.6640192307692305 Q 6.372384690504803 1.6469999999999998 6.351326998197111 1.6369038461538459 Q 6.330269305889418 1.626807692307692 6.309500075120187 1.626807692307692 Q 6.285269305889418 1.626807692307692 6.265653921274033 1.6369038461538459 Q 6.2460385366586495 1.6469999999999998 6.231903921274034 1.664307692307692 Q 6.217769305889418 1.6816153846153843 6.210269305889418 1.7035384615384612 Q 6.202769305889419 1.7254615384615382 6.202769305889419 1.7485384615384614 Q 6.202769305889419 1.7727692307692307 6.211134690504803 1.7946923076923076 Q 6.219500075120187 1.8166153846153843 6.235076998197111 1.8336346153846153 Q 6.250653921274034 1.850653846153846 6.270846228966342 1.8598846153846151 Q 6.291038536658649 1.8691153846153845 6.3146923828124955 1.8691153846153845 Q 6.329692382812495 1.8691153846153845 6.345846228966342 1.8633461538461535 Q 6.3620000751201875 1.8575769230769228 6.376711613581726 1.847480769230769 Q 6.391423152043265 1.8373846153846152 6.401230844350957 1.8235384615384613 Q 6.4110385366586495 1.8096923076923075 6.413346228966342 1.7946923076923076 M 6.645851581280044 1.903730769230769 Q 6.608928504356967 1.903730769230769 6.577197735126198 1.8916153846153845 Q 6.545466965895429 1.8794999999999997 6.522390042818506 1.8546923076923074 L 6.5385438889723515 1.8269999999999997 Q 6.563928504356967 1.850653846153846 6.589601581280044 1.861326923076923 Q 6.615274658203121 1.8719999999999999 6.644120812049275 1.8719999999999999 Q 6.6793131197415825 1.8719999999999999 6.701236196664659 1.8578653846153843 Q 6.723159273587736 1.843730769230769 6.723159273587736 1.8171923076923076 Q 6.723159273587736 1.799307692307692 6.712486196664659 1.7897884615384614 Q 6.7018131197415824 1.7802692307692305 6.681909273587737 1.7742115384615382 Q 6.66200542743389 1.768153846153846 6.6343131197415826 1.761230769230769 Q 6.603159273587736 1.7525769230769228 6.582101581280044 1.7430576923076921 Q 6.5610438889723515 1.7335384615384613 6.550370812049275 1.7188269230769229 Q 6.539697735126198 1.7041153846153845 6.539697735126198 1.6804615384615382 Q 6.539697735126198 1.6510384615384612 6.554409273587736 1.6317115384615382 Q 6.569120812049275 1.612384615384615 6.594793888972352 1.6022884615384614 Q 6.620466965895429 1.5921923076923075 6.652197735126197 1.5921923076923075 Q 6.686813119741583 1.5921923076923075 6.713351581280044 1.603153846153846 Q 6.739890042818505 1.6141153846153844 6.756620812049275 1.633730769230769 L 6.737582350510813 1.6602692307692306 Q 6.721428504356967 1.641807692307692 6.699216965895428 1.6328653846153844 Q 6.67700542743389 1.6239230769230768 6.649890042818505 1.6239230769230768 Q 6.631428504356967 1.6239230769230768 6.614697735126198 1.6288269230769228 Q 6.597966965895429 1.633730769230769 6.587293888972352 1.644980769230769 Q 6.576620812049275 1.656230769230769 6.576620812049275 1.6758461538461535 Q 6.576620812049275 1.6919999999999997 6.5846977351261975 1.7009423076923076 Q 6.592774658203121 1.7098846153846152 6.608928504356967 1.7159423076923075 Q 6.625082350510813 1.7219999999999998 6.648736196664659 1.7289230769230768 Q 6.682774658203121 1.738153846153846 6.708159273587737 1.7476730769230766 Q 6.733543888972352 1.7571923076923075 6.747390042818505 1.7721923076923074 Q 6.761236196664659 1.7871923076923075 6.761236196664659 1.8143076923076922 Q 6.761236196664659 1.8564230769230767 6.72950542743389 1.8800769230769228 Q 6.697774658203121 1.903730769230769 6.645851581280044 1.903730769230769 M 7.431607008713938 1.8979615384615383 L 7.392376239483169 1.8979615384615383 L 7.392376239483169 1.7300769230769228 Q 7.392376239483169 1.6775769230769229 7.375645470252399 1.6527692307692305 Q 7.3589147010216305 1.6279615384615382 7.326030085637015 1.6279615384615382 Q 7.291991624098554 1.6279615384615382 7.2651647010216305 1.6521923076923075 Q 7.238337777944707 1.6764230769230766 7.227376239483169 1.7144999999999997 L 7.227376239483169 1.8979615384615383 L 7.188145470252399 1.8979615384615383 L 7.188145470252399 1.7300769230769228 Q 7.188145470252399 1.6769999999999998 7.1719916240985535 1.652480769230769 Q 7.155837777944707 1.6279615384615382 7.1223762394831684 1.6279615384615382 Q 7.08891470102163 1.6279615384615382 7.061799316406246 1.6516153846153845 Q 7.034683931790861 1.6752692307692305 7.023722393329322 1.7139230769230767 L 7.023722393329322 1.8979615384615383 L 6.9844916240985535 1.8979615384615383 L 6.9844916240985535 1.5973846153846152 L 7.020260854867784 1.5973846153846152 L 7.020260854867784 1.6654615384615383 Q 7.039299316406246 1.6302692307692306 7.069010854867784 1.611230769230769 Q 7.098722393329322 1.5921923076923075 7.135068547175477 1.5921923076923075 Q 7.1725685471754765 1.5921923076923075 7.1956454702523995 1.6135384615384614 Q 7.2187223933293225 1.6348846153846153 7.223914701021631 1.6694999999999998 Q 7.244683931790862 1.6314230769230766 7.273818547175477 1.611807692307692 Q 7.302953162560092 1.5921923076923075 7.339876239483169 1.5921923076923075 Q 7.365260854867785 1.5921923076923075 7.3828570087139385 1.6014230769230766 Q 7.400453162560092 1.610653846153846 7.411126239483169 1.6276730769230767 Q 7.421799316406246 1.6446923076923075 7.426703162560092 1.6686346153846152 Q 7.431607008713938 1.6925769230769228 7.431607008713938 1.7219999999999998 L 7.431607008713938 1.8979615384615383 M 7.65026451697716 1.903730769230769 Q 7.617956824669467 1.903730769230769 7.590264516977159 1.891326923076923 Q 7.562572209284852 1.8789230769230767 7.542379901592544 1.8572884615384613 Q 7.522187593900236 1.8356538461538459 7.510937593900237 1.8073846153846151 Q 7.499687593900236 1.7791153846153844 7.499687593900236 1.746807692307692 Q 7.499687593900236 1.7046923076923075 7.519014516977159 1.6694999999999998 Q 7.538341440054083 1.634307692307692 7.572379901592544 1.6132499999999999 Q 7.606418363131006 1.5921923076923075 7.649687593900237 1.5921923076923075 Q 7.694110670823314 1.5921923076923075 7.72728374774639 1.6135384615384614 Q 7.760456824669467 1.6348846153846153 7.779495286207928 1.6697884615384613 Q 7.79853374774639 1.7046923076923075 7.79853374774639 1.746230769230769 Q 7.79853374774639 1.7508461538461537 7.79853374774639 1.7551730769230767 Q 7.79853374774639 1.7594999999999998 7.797956824669467 1.7618076923076922 L 7.540649132361775 1.7618076923076922 Q 7.54353374774639 1.7941153846153843 7.558822209284852 1.8192115384615382 Q 7.5741106708233135 1.8443076923076922 7.5986299015925445 1.8590192307692306 Q 7.623149132361775 1.873730769230769 7.651995286207929 1.873730769230769 Q 7.681418363131006 1.873730769230769 7.707668363131005 1.858730769230769 Q 7.733918363131005 1.843730769230769 7.744302978515621 1.8194999999999997 L 7.778341440054082 1.828730769230769 Q 7.769110670823313 1.850076923076923 7.750072209284852 1.8673846153846152 Q 7.73103374774639 1.8846923076923074 7.705360670823313 1.8942115384615383 Q 7.679687593900236 1.903730769230769 7.65026451697716 1.903730769230769 M 7.539495286207929 1.7335384615384613 L 7.7616106708233135 1.7335384615384613 Q 7.759302978515621 1.7006538461538458 7.74401451697716 1.6758461538461535 Q 7.728726055438698 1.6510384615384612 7.704206824669467 1.6369038461538459 Q 7.679687593900236 1.6227692307692305 7.65026451697716 1.6227692307692305 Q 7.6208414400540825 1.6227692307692305 7.596610670823313 1.6369038461538459 Q 7.572379901592544 1.6510384615384612 7.557091440054083 1.676134615384615 Q 7.541802978515621 1.701230769230769 7.539495286207929 1.7335384615384613 M 7.9946732271634575 1.903730769230769 Q 7.962365534855765 1.903730769230769 7.934673227163457 1.891326923076923 Q 7.90698091947115 1.8789230769230767 7.886788611778842 1.8572884615384613 Q 7.866596304086534 1.8356538461538459 7.855346304086535 1.8073846153846151 Q 7.844096304086534 1.7791153846153844 7.844096304086534 1.746807692307692 Q 7.844096304086534 1.7046923076923075 7.863423227163457 1.6694999999999998 Q 7.882750150240381 1.634307692307692 7.916788611778842 1.6132499999999999 Q 7.950827073317304 1.5921923076923075 7.9940963040865345 1.5921923076923075 Q 8.03851938100961 1.5921923076923075 8.071692457932688 1.6135384615384614 Q 8.104865534855765 1.6348846153846153 8.123903996394226 1.6697884615384613 Q 8.142942457932689 1.7046923076923075 8.142942457932689 1.746230769230769 Q 8.142942457932689 1.7508461538461537 8.142942457932689 1.7551730769230767 Q 8.142942457932689 1.7594999999999998 8.142365534855765 1.7618076923076922 L 7.885057842548073 1.7618076923076922 Q 7.887942457932688 1.7941153846153843 7.90323091947115 1.8192115384615382 Q 7.918519381009611 1.8443076923076922 7.943038611778842 1.8590192307692306 Q 7.967557842548072 1.873730769230769 7.996403996394227 1.873730769230769 Q 8.025827073317304 1.873730769230769 8.052077073317303 1.858730769230769 Q 8.078327073317304 1.843730769230769 8.088711688701919 1.8194999999999997 L 8.12275015024038 1.828730769230769 Q 8.113519381009612 1.850076923076923 8.094480919471149 1.8673846153846152 Q 8.075442457932688 1.8846923076923074 8.049769381009611 1.8942115384615383 Q 8.024096304086534 1.903730769230769 7.9946732271634575 1.903730769230769 M 7.883903996394227 1.7335384615384613 L 8.106019381009611 1.7335384615384613 Q 8.10371168870192 1.7006538461538458 8.088423227163457 1.6758461538461535 Q 8.073134765624996 1.6510384615384612 8.048615534855765 1.6369038461538459 Q 8.024096304086534 1.6227692307692305 7.9946732271634575 1.6227692307692305 Q 7.96525015024038 1.6227692307692305 7.941019381009611 1.6369038461538459 Q 7.916788611778842 1.6510384615384612 7.9015001502403805 1.676134615384615 Q 7.886211688701919 1.701230769230769 7.883903996394227 1.7335384615384613 M 8.350617581881005 1.8835384615384614 Q 8.346002197265621 1.8852692307692305 8.336194504957929 1.8898846153846152 Q 8.326386812650236 1.8944999999999999 8.312540658804082 1.8979615384615383 Q 8.298694504957929 1.9014230769230767 8.282540658804082 1.9014230769230767 Q 8.265809889573314 1.9014230769230767 8.251098351111775 1.8950769230769229 Q 8.236386812650236 1.888730769230769 8.22773296649639 1.8757499999999998 Q 8.219079120342544 1.8627692307692305 8.219079120342544 1.843730769230769 L 8.219079120342544 1.6285384615384613 L 8.177540658804082 1.6285384615384613 L 8.177540658804082 1.5973846153846152 L 8.219079120342544 1.5973846153846152 L 8.219079120342544 1.4958461538461536 L 8.258309889573313 1.4958461538461536 L 8.258309889573313 1.5973846153846152 L 8.327540658804082 1.5973846153846152 L 8.327540658804082 1.6285384615384613 L 8.258309889573313 1.6285384615384613 L 8.258309889573313 1.8327692307692305 Q 8.25946373572716 1.8489230769230767 8.270136812650236 1.8569999999999998 Q 8.280809889573312 1.8650769230769229 8.294656043419467 1.8650769230769229 Q 8.310809889573314 1.8650769230769229 8.324079120342544 1.8595961538461536 Q 8.337348351111775 1.8541153846153844 8.34023296649639 1.851807692307692 L 8.350617581881005 1.8835384615384614 M 8.656979229266822 1.903730769230769 Q 8.620056152343746 1.903730769230769 8.588325383112977 1.8916153846153845 Q 8.556594613882208 1.8794999999999997 8.533517690805285 1.8546923076923074 L 8.549671536959131 1.8269999999999997 Q 8.575056152343747 1.850653846153846 8.600729229266824 1.861326923076923 Q 8.6264023061899 1.8719999999999999 8.655248460036054 1.8719999999999999 Q 8.690440767728361 1.8719999999999999 8.712363844651438 1.8578653846153843 Q 8.734286921574515 1.843730769230769 8.734286921574515 1.8171923076923076 Q 8.734286921574515 1.799307692307692 8.723613844651439 1.7897884615384614 Q 8.71294076772836 1.7802692307692305 8.693036921574516 1.7742115384615382 Q 8.673133075420669 1.768153846153846 8.645440767728362 1.761230769230769 Q 8.614286921574514 1.7525769230769228 8.593229229266823 1.7430576923076921 Q 8.57217153695913 1.7335384615384613 8.561498460036054 1.7188269230769229 Q 8.550825383112977 1.7041153846153845 8.550825383112977 1.6804615384615382 Q 8.550825383112977 1.6510384615384612 8.565536921574516 1.6317115384615382 Q 8.580248460036053 1.612384615384615 8.60592153695913 1.6022884615384614 Q 8.631594613882207 1.5921923076923075 8.663325383112976 1.5921923076923075 Q 8.697940767728362 1.5921923076923075 8.724479229266823 1.603153846153846 Q 8.751017690805284 1.6141153846153844 8.767748460036053 1.633730769230769 L 8.748709998497592 1.6602692307692306 Q 8.732556152343745 1.641807692307692 8.710344613882208 1.6328653846153844 Q 8.68813307542067 1.6239230769230768 8.661017690805284 1.6239230769230768 Q 8.642556152343746 1.6239230769230768 8.625825383112977 1.6288269230769228 Q 8.609094613882208 1.633730769230769 8.598421536959131 1.644980769230769 Q 8.587748460036053 1.656230769230769 8.587748460036053 1.6758461538461535 Q 8.587748460036053 1.6919999999999997 8.595825383112977 1.7009423076923076 Q 8.6039023061899 1.7098846153846152 8.620056152343746 1.7159423076923075 Q 8.636209998497591 1.7219999999999998 8.659863844651438 1.7289230769230768 Q 8.6939023061899 1.738153846153846 8.719286921574515 1.7476730769230766 Q 8.74467153695913 1.7571923076923075 8.758517690805284 1.7721923076923074 Q 8.772363844651439 1.7871923076923075 8.772363844651439 1.8143076923076922 Q 8.772363844651439 1.8564230769230767 8.74063307542067 1.8800769230769228 Q 8.7089023061899 1.903730769230769 8.656979229266822 1.903730769230769 M 8.970808762770428 1.903730769230769 Q 8.938501070462737 1.903730769230769 8.91109722430889 1.891326923076923 Q 8.883693378155044 1.8789230769230767 8.863789532001197 1.8572884615384613 Q 8.843885685847352 1.8356538461538459 8.832924147385814 1.8076730769230767 Q 8.821962608924276 1.7796923076923075 8.821962608924276 1.7485384615384614 Q 8.821962608924276 1.716230769230769 8.832924147385814 1.6882499999999998 Q 8.843885685847352 1.6602692307692306 8.86407799353966 1.6386346153846152 Q 8.884270301231966 1.6169999999999998 8.911674147385813 1.6045961538461535 Q 8.939077993539659 1.5921923076923075 8.971385685847352 1.5921923076923075 Q 9.003693378155043 1.5921923076923075 9.030808762770429 1.6045961538461535 Q 9.057924147385814 1.6169999999999998 9.07811645507812 1.6386346153846152 Q 9.09830876277043 1.6602692307692306 9.109270301231968 1.6882499999999998 Q 9.120231839693506 1.716230769230769 9.120231839693506 1.7485384615384614 Q 9.120231839693506 1.7796923076923075 9.109270301231968 1.8076730769230767 Q 9.09830876277043 1.8356538461538459 9.078404916616583 1.8572884615384613 Q 9.058501070462736 1.8789230769230767 9.03109722430889 1.891326923076923 Q 9.003693378155043 1.903730769230769 8.970808762770428 1.903730769230769 M 8.861770301231967 1.7491153846153844 Q 8.861770301231967 1.7825769230769228 8.876481839693506 1.809980769230769 Q 8.891193378155045 1.8373846153846152 8.916001070462736 1.8532499999999998 Q 8.940808762770429 1.8691153846153845 8.970808762770428 1.8691153846153845 Q 9.00080876277043 1.8691153846153845 9.02561645507812 1.8529615384615383 Q 9.050424147385813 1.8368076923076921 9.065424147385814 1.808826923076923 Q 9.080424147385813 1.7808461538461535 9.080424147385813 1.7479615384615381 Q 9.080424147385813 1.7144999999999997 9.065424147385814 1.686807692307692 Q 9.050424147385813 1.6591153846153843 9.02561645507812 1.6429615384615381 Q 9.00080876277043 1.626807692307692 8.970808762770428 1.626807692307692 Q 8.940808762770429 1.626807692307692 8.916289532001198 1.6435384615384612 Q 8.891770301231967 1.6602692307692306 8.876770301231968 1.6876730769230768 Q 8.861770301231967 1.715076923076923 8.861770301231967 1.7491153846153844 M 9.193484168419467 1.476807692307692 L 9.232714937650236 1.476807692307692 L 9.232714937650236 1.829884615384615 Q 9.232714937650236 1.852384615384615 9.240791860727159 1.859307692307692 Q 9.248868783804083 1.866230769230769 9.260407245342543 1.866230769230769 Q 9.27079186072716 1.866230769230769 9.281176476111774 1.8639230769230768 Q 9.29156109149639 1.8616153846153844 9.29906109149639 1.859307692307692 L 9.305984168419467 1.8910384615384612 Q 9.295022629957929 1.895653846153846 9.279157245342544 1.8985384615384613 Q 9.26329186072716 1.9014230769230767 9.251753399188697 1.9014230769230767 Q 9.225214937650236 1.9014230769230767 9.209349553034851 1.8858461538461537 Q 9.193484168419467 1.8702692307692306 9.193484168419467 1.843153846153846 L 9.193484168419467 1.476807692307692 M 9.351545316256006 1.7739230769230767 L 9.351545316256006 1.5973846153846152 L 9.390776085486776 1.5973846153846152 L 9.390776085486776 1.767 Q 9.390776085486776 1.8183461538461536 9.408372239332929 1.843730769230769 Q 9.425968393179083 1.8691153846153845 9.460583777794467 1.8691153846153845 Q 9.48366070087139 1.8691153846153845 9.505295316256007 1.8590192307692306 Q 9.526929931640622 1.8489230769230767 9.54366070087139 1.8301730769230766 Q 9.560391470102159 1.8114230769230768 9.569045316256005 1.7866153846153845 L 9.569045316256005 1.5973846153846152 L 9.608276085486775 1.5973846153846152 L 9.608276085486775 1.850653846153846 Q 9.608276085486775 1.858730769230769 9.611737623948313 1.862480769230769 Q 9.615199162409851 1.866230769230769 9.62212223933293 1.8668076923076922 L 9.62212223933293 1.8979615384615383 Q 9.615199162409851 1.8985384615384613 9.611160700871391 1.8988269230769228 Q 9.607122239332929 1.8991153846153843 9.60366070087139 1.8991153846153843 Q 9.592122239332928 1.8979615384615383 9.583756854717544 1.8898846153846152 Q 9.57539147010216 1.881807692307692 9.574814547025236 1.8702692307692306 L 9.57366070087139 1.829884615384615 Q 9.554045316256007 1.8644999999999998 9.520295316256005 1.8841153846153844 Q 9.486545316256006 1.903730769230769 9.447314547025236 1.903730769230769 Q 9.400006854717544 1.903730769230769 9.375776085486775 1.8708461538461536 Q 9.351545316256006 1.8379615384615382 9.351545316256006 1.7739230769230767 M 9.847118858924276 1.8835384615384614 Q 9.842503474308891 1.8852692307692305 9.832695782001199 1.8898846153846152 Q 9.822888089693507 1.8944999999999999 9.809041935847352 1.8979615384615383 Q 9.7951957820012 1.9014230769230767 9.779041935847353 1.9014230769230767 Q 9.762311166616584 1.9014230769230767 9.747599628155045 1.8950769230769229 Q 9.732888089693507 1.888730769230769 9.72423424353966 1.8757499999999998 Q 9.715580397385814 1.8627692307692305 9.715580397385814 1.843730769230769 L 9.715580397385814 1.6285384615384613 L 9.674041935847352 1.6285384615384613 L 9.674041935847352 1.5973846153846152 L 9.715580397385814 1.5973846153846152 L 9.715580397385814 1.4958461538461536 L 9.754811166616584 1.4958461538461536 L 9.754811166616584 1.5973846153846152 L 9.824041935847353 1.5973846153846152 L 9.824041935847353 1.6285384615384613 L 9.754811166616584 1.6285384615384613 L 9.754811166616584 1.8327692307692305 Q 9.75596501277043 1.8489230769230767 9.766638089693506 1.8569999999999998 Q 9.777311166616583 1.8650769230769229 9.791157320462737 1.8650769230769229 Q 9.807311166616584 1.8650769230769229 9.820580397385815 1.8595961538461536 Q 9.833849628155045 1.8541153846153844 9.836734243539661 1.851807692307692 L 9.847118858924276 1.8835384615384614 M 9.90193922776442 1.8979615384615383 L 9.90193922776442 1.5973846153846152 L 9.941169996995189 1.5973846153846152 L 9.941169996995189 1.8979615384615383 L 9.90193922776442 1.8979615384615383 M 9.90193922776442 1.5344999999999998 L 9.90193922776442 1.476807692307692 L 9.941169996995189 1.476807692307692 L 9.941169996995189 1.5344999999999998 L 9.90193922776442 1.5344999999999998 M 10.161564753605766 1.903730769230769 Q 10.129257061298075 1.903730769230769 10.101853215144228 1.891326923076923 Q 10.074449368990383 1.8789230769230767 10.054545522836536 1.8572884615384613 Q 10.034641676682691 1.8356538461538459 10.023680138221152 1.8076730769230767 Q 10.012718599759614 1.7796923076923075 10.012718599759614 1.7485384615384614 Q 10.012718599759614 1.716230769230769 10.023680138221152 1.6882499999999998 Q 10.034641676682691 1.6602692307692306 10.054833984374998 1.6386346153846152 Q 10.075026292067305 1.6169999999999998 10.102430138221152 1.6045961538461535 Q 10.129833984374997 1.5921923076923075 10.16214167668269 1.5921923076923075 Q 10.194449368990382 1.5921923076923075 10.221564753605767 1.6045961538461535 Q 10.248680138221152 1.6169999999999998 10.268872445913459 1.6386346153846152 Q 10.289064753605768 1.6602692307692306 10.300026292067306 1.6882499999999998 Q 10.310987830528845 1.716230769230769 10.310987830528845 1.7485384615384614 Q 10.310987830528845 1.7796923076923075 10.300026292067306 1.8076730769230767 Q 10.289064753605768 1.8356538461538459 10.269160907451921 1.8572884615384613 Q 10.249257061298074 1.8789230769230767 10.221853215144229 1.891326923076923 Q 10.194449368990382 1.903730769230769 10.161564753605766 1.903730769230769 M 10.052526292067306 1.7491153846153844 Q 10.052526292067306 1.7825769230769228 10.067237830528844 1.809980769230769 Q 10.081949368990383 1.8373846153846152 10.106757061298074 1.8532499999999998 Q 10.131564753605767 1.8691153846153845 10.161564753605766 1.8691153846153845 Q 10.191564753605768 1.8691153846153845 10.216372445913459 1.8529615384615383 Q 10.241180138221152 1.8368076923076921 10.256180138221152 1.808826923076923 Q 10.271180138221151 1.7808461538461535 10.271180138221151 1.7479615384615381 Q 10.271180138221151 1.7144999999999997 10.256180138221152 1.686807692307692 Q 10.241180138221152 1.6591153846153843 10.216372445913459 1.6429615384615381 Q 10.191564753605768 1.626807692307692 10.161564753605766 1.626807692307692 Q 10.131564753605767 1.626807692307692 10.107045522836536 1.6435384615384612 Q 10.082526292067305 1.6602692307692306 10.067526292067306 1.6876730769230768 Q 10.052526292067306 1.715076923076923 10.052526292067306 1.7491153846153844 M 10.635201697716344 1.8979615384615383 L 10.595970928485574 1.8979615384615383 L 10.595970928485574 1.7300769230769228 Q 10.595970928485574 1.6769999999999998 10.580394005408651 1.652480769230769 Q 10.564817082331729 1.6279615384615382 10.53135554387019 1.6279615384615382 Q 10.508278620793266 1.6279615384615382 10.485778620793267 1.6392115384615382 Q 10.463278620793266 1.6504615384615382 10.446259390024036 1.6697884615384613 Q 10.429240159254805 1.6891153846153844 10.421740159254805 1.7139230769230767 L 10.421740159254805 1.8979615384615383 L 10.382509390024035 1.8979615384615383 L 10.382509390024035 1.5973846153846152 L 10.418278620793266 1.5973846153846152 L 10.418278620793266 1.6654615384615383 Q 10.430394005408651 1.6435384615384612 10.450009390024036 1.6270961538461537 Q 10.46962477463942 1.610653846153846 10.494432466947114 1.6014230769230766 Q 10.519240159254805 1.5921923076923075 10.545778620793266 1.5921923076923075 Q 10.570586313100959 1.5921923076923075 10.587894005408652 1.6014230769230766 Q 10.605201697716344 1.610653846153846 10.615586313100959 1.6276730769230767 Q 10.625970928485575 1.6446923076923075 10.63058631310096 1.6686346153846152 Q 10.635201697716344 1.6925769230769228 10.635201697716344 1.7219999999999998 L 10.635201697716344 1.8979615384615383" fill="#544ca9" fill-rule="nonzero"></path></g><g clip-path="url(&quot;#SvgjsClipPath1001&quot;)"><g clip-path="url(&quot;#ae1a8859a-34d6-4111-8fdc-01bf91df9ce33d576f99-2f49-4fa4-b4b7-b2cadb13de25&quot;)"><path d=" M 11.640023437356959 0.6984057678498449 L 11.624775558350853 0.6984057678498449 L 11.624775558350853 0.5663314597122092 L 11.482662192888137 0.5663314597122092 L 11.482662192888137 0.6984057678498449 L 11.467414313882033 0.6984057678498449 C 11.357408960761367 0.6984057678498449 11.267403394145282 0.8063354251126602 11.267403394145282 0.9382563406318696 L 11.267403394145282 1.8622249369035315 C 11.267403394145282 1.9075410327938909 11.298039490084987 1.9442801967433168 11.335829556654268 1.9442801967433168 L 11.771608194584724 1.9442801967433168 C 11.809398261154005 1.9442801967433168 11.84003435709371 1.9075410327938909 11.84003435709371 1.8622249369035315 L 11.84003435709371 0.9382563406318696 C 11.84003435709371 0.8063354251126602 11.750032054150358 0.6984057678498449 11.640023437356959 0.6984057678498449" fill="#5dbfb1" transform="matrix(1,0,0,1,0,0)" fill-rule="nonzero"></path></g><g clip-path="url(&quot;#ae1a8859a-34d6-4111-8fdc-01bf91df9ce33d576f99-2f49-4fa4-b4b7-b2cadb13de25&quot;)"><path d=" M 11.267403394145282 1.122467820670729 L 11.535331343444755 1.122467820670729 C 11.549593593285651 1.122467820670729 11.561261223304236 1.1361589277834447 11.561261223304236 1.1528917778828234 L 11.561261223304236 1.5886214607222917 C 11.561261223304236 1.6053543108216703 11.549593593285651 1.619045417934386 11.535331343444755 1.619045417934386 L 11.267403394145282 1.619045417934386 Z" fill="#f68ccb" transform="matrix(1,0,0,1,0,0)" fill-rule="nonzero"></path></g><g clip-path="url(&quot;#ae1a8859a-34d6-4111-8fdc-01bf91df9ce33d576f99-2f49-4fa4-b4b7-b2cadb13de25&quot;)"><path d=" M 11.327957578023549 1.3452722307710578 C 11.327957578023549 1.3118293762814282 11.300846248634912 1.2847180468927912 11.267403394145282 1.2847180468927912 L 11.267403394145282 1.405829678322057 C 11.300846248634912 1.405829678322057 11.327957578023549 1.3787183489334205 11.327957578023549 1.3452722307710578" fill="#b970bf" transform="matrix(1,0,0,1,0,0)" fill-rule="nonzero"></path></g><g clip-path="url(&quot;#SvgjsClipPath10003d576f99-2f49-4fa4-b4b7-b2cadb13de25&quot;)"><path d=" M 11.267403394145282 1.483348433063708 L 11.417277773365814 1.483348433063708 L 11.417277773365814 1.444781612384098 L 11.267403394145282 1.444781612384098 Z" fill="#b970bf" transform="matrix(1,0,0,1,0,0)" fill-rule="nonzero"></path></g><g clip-path="url(&quot;#be1a8859a-34d6-4111-8fdc-01bf91df9ce33d576f99-2f49-4fa4-b4b7-b2cadb13de25&quot;)"><path d=" M 11.857054410393546 0.30968929072162127 C 11.85703102202512 0.3001449989450241 11.849288210489563 0.292419705082625 11.83974389022052 0.2924179346213848 L 11.348238040383123 0.2924179346213848 C 11.339295577096152 0.2924179346213848 11.332190561557564 0.2992847020505038 11.331273469519738 0.3079856535552714 L 11.330920992864632 0.30783552460957775 L 11.330920992864632 0.36597785433854824 C 11.330920127211698 0.37267367974305543 11.333579426715907 0.3790955577610788 11.338313784260002 0.3838305273746658 C 11.343048141804097 0.38856549698825277 11.349469675989843 0.3912256266529023 11.3561655014503 0.39122562659694377 L 11.449575078726347 0.39122562659694377 L 11.449575078726347 0.5410869511265461 C 11.449575078726347 0.5549706149304777 11.460935923508078 0.5663314597122092 11.474822850984742 0.5663314597122092 L 11.632618163926981 0.5663314597122092 C 11.646505091403645 0.5663314597122092 11.657865936185377 0.5549706149304777 11.657865936185377 0.5410869511265461 L 11.657865936185377 0.4436043102803705 C 11.657865936185377 0.5297358973630122 11.721367216541065 0.601060201258433 11.803954455036243 0.6138276889878594 L 11.8039903554363 0.6139386538607634 L 11.806575184240417 0.6141475289156416 C 11.810347989919155 0.614669716552837 11.814114268252425 0.6152375956082868 11.81796540207674 0.615515007790547 C 11.817697780912678 0.6153746698630507 11.817492169530533 0.6151462127717776 11.817227812039203 0.6149928201533514 L 11.817270239784724 0.6149960838260841 C 11.817518278912392 0.6151429490990452 11.817710835603608 0.6153616151721208 11.81796540207674 0.6155019530996171 C 11.822080893392387 0.6158054746637369 11.826189857362568 0.6161448966279137 11.83038041315106 0.6161448966279137 C 11.830651297987856 0.6161448966279137 11.83090912813372 0.6161024688823917 11.831180012970517 0.6161024688823917 L 11.831698936934979 0.6161448966279137 L 11.831705464280445 0.616076359500532 C 11.834606869339611 0.6160306680822774 11.837469110325987 0.6158250567001317 11.840337878657829 0.6156292363361834 L 11.844423996918882 0.6143400856068574 C 11.851773787912409 0.6095849144356472 11.856907545120585 0.6016248166411504 11.85702177366622 0.5921079469532651 C 11.857025037338953 0.5920002457530935 11.857064201411744 0.5919023355711194 11.857064201411744 0.5917946343709478 C 11.857064201411744 0.5791576935508203 11.848359986234243 0.5692655014987006 11.836911022288735 0.5662498678938974 L 11.831199595006911 0.5655644966200787 L 11.827616082346658 0.5653686762561303 C 11.82734193383713 0.5653393032015381 11.827071049000335 0.5652936117832836 11.826790373145343 0.5652838207650862 C 11.761197078568141 0.563335408143801 11.708361480702168 0.5096577827128507 11.708361480702168 0.44360431028037056 L 11.708361480702168 0.3912256265969438 L 11.857064201411744 0.3912256265969438 L 11.857064201411744 0.3096827633761563 Z" fill="#403b4b" transform="matrix(1,0,0,1,0,0)" fill-rule="nonzero"></path></g><g clip-path="url(&quot;#be1a8859a-34d6-4111-8fdc-01bf91df9ce33d576f99-2f49-4fa4-b4b7-b2cadb13de25&quot;)"><path d=" M 12.877810485219367 1.00313489088066 L 12.76017140157745 1.00313489088066 L 12.76017140157745 0.8170533263660948 L 12.61102482137626 0.8170533263660948 L 12.61102482137626 1.00313489088066 L 12.493385737734343 1.00313489088066 C 12.34488210106145 1.00313489088066 12.223378828904286 1.1246348993650899 12.223378828904286 1.273141799710717 L 12.223378828904286 1.859166875553206 C 12.223378828904286 1.8962911528850634 12.253753831025394 1.926669418678903 12.290878108357251 1.926669418678903 L 13.080318114596459 1.926669418678903 C 13.117439128255583 1.926669418678903 13.147817394049424 1.8962911528850634 13.147817394049424 1.859166875553206 L 13.147817394049424 1.273141799710717 C 13.147817394049424 1.1246348993650899 13.02631085821953 1.00313489088066 12.877810485219367 1.00313489088066" fill="#544ca9" transform="matrix(1,0,0,1,0,0)" fill-rule="nonzero"></path></g><g clip-path="url(&quot;#be1a8859a-34d6-4111-8fdc-01bf91df9ce33d576f99-2f49-4fa4-b4b7-b2cadb13de25&quot;)"><path d=" M 12.877810485219367 1.00313489088066 L 12.76017140157745 1.00313489088066 L 12.76017140157745 0.8170533263660948 L 12.61102482137626 0.8170533263660948 L 12.61102482137626 1.00313489088066 L 12.493385737734343 1.00313489088066 C 12.34488210106145 1.00313489088066 12.223378828904286 1.1246348993650899 12.223378828904286 1.273141799710717 L 12.223378828904286 1.859166875553206 C 12.223378828904286 1.8962911528850634 12.253753831025394 1.926669418678903 12.290878108357251 1.926669418678903 L 13.080318114596459 1.926669418678903 C 13.117439128255583 1.926669418678903 13.147817394049424 1.8962911528850634 13.147817394049424 1.859166875553206 L 13.147817394049424 1.273141799710717 C 13.147817394049424 1.1246348993650899 13.02631085821953 1.00313489088066 12.877810485219367 1.00313489088066" fill="#544ca9" transform="matrix(1,0,0,1,0,0)" fill-rule="nonzero"></path></g><g clip-path="url(&quot;#SvgjsClipPath10003d576f99-2f49-4fa4-b4b7-b2cadb13de25&quot;)"><path d=" M 12.223375565231553 1.668007036266916 L 13.147817394049424 1.668007036266916 L 13.147817394049424 1.2608834449275559 L 12.223375565231553 1.2608834449275559 Z" fill="#f68ccb" transform="matrix(1,0,0,1,0,0)" fill-rule="nonzero"></path></g><g clip-path="url(&quot;#ce1a8859a-34d6-4111-8fdc-01bf91df9ce33d576f99-2f49-4fa4-b4b7-b2cadb13de25&quot;)"><path d=" M 12.764394594093268 1.4126311722965266 C 12.764394594093268 1.3679221195344065 12.728151508399177 1.3316790338403162 12.683442455637058 1.3316790338403162 C 12.63873666654767 1.3316790338403162 12.60249358085358 1.3679221195344065 12.60249358085358 1.4126311722965266 C 12.60249358085358 1.4573402250586462 12.63873666654767 1.493580047080004 12.683442455637058 1.493580047080004 C 12.728151508399177 1.493580047080004 12.764394594093268 1.4573402250586462 12.764394594093268 1.4126311722965266" fill="#b970bf" transform="matrix(1,0,0,1,0,0)" fill-rule="nonzero"></path></g><g clip-path="url(&quot;#SvgjsClipPath10003d576f99-2f49-4fa4-b4b7-b2cadb13de25&quot;)"><path d=" M 12.883792797337986 1.5972081836814227 L 12.483088850263396 1.5972081836814227 L 12.483088850263396 1.5456519455265787 L 12.883792797337986 1.5456519455265787 Z" fill="#b970bf" transform="matrix(1,0,0,1,0,0)" fill-rule="nonzero"></path></g><g clip-path="url(&quot;#de1a8859a-34d6-4111-8fdc-01bf91df9ce33d576f99-2f49-4fa4-b4b7-b2cadb13de25&quot;)"><path d=" M 12.983886376370139 0.7382976396588375 C 12.983886376370139 0.7196620683564283 12.96877883529153 0.7045479999323552 12.950136736643657 0.7045479999323552 L 12.719346119366971 0.7045479999323552 L 12.719339592021505 0.7045512636050877 L 12.570202802838512 0.7045512636050877 C 12.551639032336217 0.7045512636050877 12.53645316311203 0.7197371328292752 12.53645316311203 0.7383009033315701 L 12.53645316311203 0.8170533263660948 C 12.53645316311203 0.8356170968683897 12.551639032336217 0.8508062297653097 12.570202802838512 0.8508062297653097 L 12.800990156442465 0.8508062297653097 C 12.819550663272027 0.8508062297653097 12.834739796168947 0.8356170968683897 12.834739796168947 0.8170533263660948 L 12.834739796168947 0.7776771148488324 L 12.983886376370139 0.7776771148488324 Z" fill="#5dbfb1" transform="matrix(1,0,0,1,0,0)" fill-rule="nonzero"></path></g><g clip-path="url(&quot;#de1a8859a-34d6-4111-8fdc-01bf91df9ce33d576f99-2f49-4fa4-b4b7-b2cadb13de25&quot;)"><path d=" M 11.211287805183176 0.641993184669084 C 11.19269792529902 0.6010797832948278 11.191695977770152 0.5757732649272478 11.207100513067415 0.53616533264598 C 11.210080246272161 0.5284957017246731 11.201901482404589 0.5203169378571009 11.194231851483282 0.5232966710618469 C 11.154623919202015 0.5387012063591099 11.129314137161701 0.5376992588302414 11.088403999460178 0.5191093789460866 C 11.080470011047542 0.5155095479221712 11.072914608671871 0.5230649502978415 11.076514439695787 0.5309989387104784 C 11.095084737543546 0.5719286584483969 11.096086685072414 0.5972384404887094 11.080701731811546 0.6368267907335825 C 11.077721998606801 0.6444964216548892 11.085900762474372 0.6526751855224615 11.09357039339568 0.6496954523177155 C 11.133158743640553 0.6343104990568472 11.158465262008132 0.6353124465857158 11.199398245418784 0.6538827444334757 C 11.207332233831421 0.6574825754573913 11.214887636207092 0.6499271730817209 11.211287805183176 0.641993184669084" fill="#f68ccb" transform="matrix(1,0,0,1,0,0)" fill-rule="nonzero"></path></g><g clip-path="url(&quot;#de1a8859a-34d6-4111-8fdc-01bf91df9ce33d576f99-2f49-4fa4-b4b7-b2cadb13de25&quot;)"><path d=" M 16.4845409132913 1.7762173693847236 C 16.466871389117706 1.734386875972643 16.466871389117706 1.7080751464034623 16.4845409132913 1.6662022252458595 C 16.48796124231493 1.6580887348329365 16.47978247844736 1.6499132346380967 16.47167225170717 1.653330299988994 C 16.429796066876833 1.6709998241625916 16.403487600980384 1.6710030878353241 16.361657107568305 1.6533335636617261 C 16.353546880828112 1.6499132346380967 16.345368116960543 1.6580887348329365 16.34878844598417 1.6662022252458595 C 16.366435124448643 1.7080555643670672 16.366435124448643 1.7343640302635155 16.34878844598417 1.7762173693847236 C 16.345368116960543 1.784327596124914 16.35354361715538 1.7925063599924864 16.361657107568305 1.7890860309688565 C 16.403510446689513 1.7714360888316536 16.42981891258596 1.7714360888316536 16.47167225170717 1.7890860309688565 C 16.47978247844736 1.7925063599924864 16.48796124231493 1.784327596124914 16.4845409132913 1.7762173693847236" fill="#b970bf" transform="matrix(1,0,0,1,0,0)" fill-rule="nonzero"></path></g><g clip-path="url(&quot;#de1a8859a-34d6-4111-8fdc-01bf91df9ce33d576f99-2f49-4fa4-b4b7-b2cadb13de25&quot;)"><path d=" M 15.126634390510297 0.20563687666498148 C 15.105665293204172 0.15598988705863293 15.105665293204172 0.12476959369981555 15.126634390510297 0.07507038532974744 C 15.130694399389492 0.06544581444169052 15.120988236683123 0.05573965173532183 15.111363665795068 0.05979639694178325 C 15.061664457425 0.08076875792064178 15.03044090039345 0.08076875792064178 14.980797174459832 0.05979966061451572 C 14.971169339899044 0.05573965173532183 14.961466440865408 0.0654458144416905 14.965523186071868 0.0750736490024799 C 14.986469437668866 0.12474022064522328 14.986469437668866 0.15596704134950562 14.965523186071868 0.20563687666498148 C 14.961466440865408 0.2152614475530384 14.971169339899044 0.2249676102594071 14.980797174459832 0.2209076013802132 C 15.03046700977531 0.19996461345594693 15.061690566806858 0.19996461345594693 15.111360402122333 0.22091086505294566 C 15.120988236683123 0.2249676102594071 15.130694399389492 0.2152614475530384 15.126634390510297 0.20563687666498148" fill="#f68ccb" transform="matrix(1,0,0,1,0,0)" fill-rule="nonzero"></path></g><g clip-path="url(&quot;#de1a8859a-34d6-4111-8fdc-01bf91df9ce33d576f99-2f49-4fa4-b4b7-b2cadb13de25&quot;)"><path d=" M 13.38703481432135 0.9434847443492881 C 13.38703481432135 0.9125255448090684 13.361933907335915 0.8874279014963665 13.330977971468428 0.8874279014963665 C 13.300015508255475 0.8874279014963665 13.27491460127004 0.9125255448090684 13.27491460127004 0.9434847443492881 C 13.27491460127004 0.9744504712349727 13.300015508255475 0.9995481145476747 13.330977971468428 0.9995481145476747 C 13.361933907335915 0.9995481145476747 13.38703481432135 0.9744504712349727 13.38703481432135 0.9434847443492881 Z" fill="none" transform="matrix(1,0,0,1,0,0)" fill-rule="nonzero" stroke-dasharray="none" stroke-miterlimit="10" stroke-linejoin="miter" stroke-linecap="butt" stroke-width="0.030920035467430065" stroke="#f68ccb"></path></g><g clip-path="url(&quot;#de1a8859a-34d6-4111-8fdc-01bf91df9ce33d576f99-2f49-4fa4-b4b7-b2cadb13de25&quot;)"><path d=" M 16.541400619636413 0.766365225158088 C 16.541400619636413 0.7354060256178684 16.516299712650977 0.710305118632434 16.485343776783488 0.710305118632434 C 16.454381313570536 0.710305118632434 16.429280406585104 0.7354060256178684 16.429280406585104 0.766365225158088 C 16.429280406585104 0.7973276883710402 16.454381313570536 0.8224285953564746 16.485343776783488 0.8224285953564746 C 16.516299712650977 0.8224285953564746 16.541400619636413 0.7973276883710402 16.541400619636413 0.766365225158088 Z" fill="none" transform="matrix(1,0,0,1,0,0)" fill-rule="nonzero" stroke-dasharray="none" stroke-miterlimit="10" stroke-linejoin="miter" stroke-linecap="butt" stroke-width="0.030920035467430065" stroke="#5dbfb1"></path></g><g clip-path="url(&quot;#de1a8859a-34d6-4111-8fdc-01bf91df9ce33d576f99-2f49-4fa4-b4b7-b2cadb13de25&quot;)"><path d=" M 12.133203551306114 0.871964620089919 C 12.133203551306114 0.8410054205496994 12.10810264432068 0.8159077772369975 12.077146708453192 0.8159077772369975 C 12.046184245240239 0.8159077772369975 12.021083338254805 0.8410054205496994 12.021083338254805 0.871964620089919 C 12.021083338254805 0.9029303469756037 12.046184245240239 0.9280279902883056 12.077146708453192 0.9280279902883056 C 12.10810264432068 0.9280279902883056 12.133203551306114 0.9029303469756037 12.133203551306114 0.871964620089919 Z" fill="none" transform="matrix(1,0,0,1,0,0)" fill-rule="nonzero" stroke-dasharray="none" stroke-miterlimit="10" stroke-linejoin="miter" stroke-linecap="butt" stroke-width="0.030920035467430065" stroke="#5dbfb1"></path></g><g clip-path="url(&quot;#de1a8859a-34d6-4111-8fdc-01bf91df9ce33d576f99-2f49-4fa4-b4b7-b2cadb13de25&quot;)"><path d=" M 12.491283932494632 0.19955991803712048 L 12.519935715412995 0.17091792613695517 C 12.526926621062833 0.16392702029520295 12.52692662096697 0.15259252260805248 12.519935715198878 0.14560161688455311 C 12.512944809430788 0.13861071116105372 12.501610311743637 0.1386107111374882 12.494619405946477 0.14560161683191808 L 12.465967623108854 0.17425013599680803 L 12.437312576517758 0.14560161675117775 C 12.433956843651975 0.14224304152808415 12.42940378686727 0.1403559744914697 12.424656053661236 0.1403559744914697 C 12.419908320455203 0.1403559744914697 12.415355263670497 0.14224304152808415 12.411999530804714 0.14560161675117775 C 12.408640757304097 0.1489579069436783 12.406753609102829 0.1535115040458755 12.406753609102829 0.15825977144406644 C 12.406753609102829 0.16300803884225745 12.408640757304097 0.16756163594445458 12.411999530804714 0.17091792613695517 L 12.440648050050344 0.19955991803712048 L 12.411999530804714 0.2282051736100183 C 12.408640955581621 0.23156090647580158 12.406753888545007 0.23611396326050688 12.406753888545007 0.24086169646654076 C 12.406753888545007 0.24560942967257465 12.408640955581621 0.25016248645727995 12.411999530804714 0.25351821932306323 C 12.415350789992546 0.2568837631400623 12.419906550538814 0.25877279433098566 12.424656053661236 0.25876620507687653 C 12.429234986504893 0.25876620507687653 12.43381391934855 0.2570168764922721 12.437312576517758 0.25351821932306323 L 12.465967623108854 0.2248729637501654 L 12.494619406027217 0.25351821932306323 C 12.497972284111869 0.2568833402492567 12.502528845815393 0.25877221656255 12.50727919255647 0.25876620507687653 C 12.511858125400128 0.25876620507687653 12.516440321916518 0.2570168764922721 12.519935715412995 0.25351821932306323 C 12.523292690058867 0.2501616366738091 12.525178651733654 0.24560889836390137 12.525178651733654 0.24086169646654076 C 12.525178651733654 0.23611449456918004 12.523292690058867 0.23156175625927244 12.519935715412995 0.2282051736100183 Z" fill="#5dbfb1" transform="matrix(1,0,0,1,0,0)" fill-rule="nonzero"></path></g><g clip-path="url(&quot;#de1a8859a-34d6-4111-8fdc-01bf91df9ce33d576f99-2f49-4fa4-b4b7-b2cadb13de25&quot;)"><path d=" M 14.989893030365229 1.4960245379566248 L 15.018544813283592 1.4673825460564598 C 15.02553571893343 1.4603916402147075 15.025535718837567 1.4490571425275571 15.018544813069477 1.4420662368040578 C 15.011553907301385 1.4350753310805584 15.000219409614235 1.4350753310569928 14.993228503817075 1.4420662367514225 L 14.964576720979451 1.4707147559163123 L 14.935921674388357 1.4420662366706822 C 14.932565941522574 1.4387076614475887 14.928012884737868 1.4368205944109742 14.923265151531835 1.4368205944109742 C 14.9185174183258 1.4368205944109742 14.913964361541096 1.4387076614475887 14.910608628675313 1.4420662366706822 C 14.907249855174694 1.4454225268631826 14.905362706973428 1.4499761239653801 14.905362706973428 1.454724391363571 C 14.905362706973428 1.459472658761762 14.907249855174694 1.464026255863959 14.910608628675313 1.4673825460564598 L 14.939257147920943 1.4960245379566248 L 14.910608628675313 1.5246697935295228 C 14.907250053452218 1.528025526395306 14.905362986415604 1.5325785831800114 14.905362986415604 1.537326316386045 C 14.905362986415604 1.5420740495920793 14.907250053452218 1.5466271063767842 14.910608628675313 1.5499828392425679 C 14.913960298586705 1.5533477699756482 14.918515792034995 1.5552366904152692 14.923265151531835 1.5552308249963813 C 14.92784408437549 1.5552308249963809 14.932423017219149 1.5534814964117767 14.935921674388357 1.5499828392425679 L 14.964576720979451 1.5213375836696699 L 14.993228503897814 1.5499828392425679 C 14.996581381982466 1.553347960168761 15.00113794368599 1.5552368364820546 15.00588829042707 1.5552308249963813 C 15.010467223270727 1.5552308249963809 15.015049419787115 1.5534814964117767 15.018544813283592 1.5499828392425679 C 15.021901787929465 1.5466262565933135 15.023787749604253 1.5420735182834058 15.023787749604253 1.537326316386045 C 15.023787749604253 1.5325791144886844 15.021901787929465 1.5280263761787771 15.018544813283592 1.5246697935295228 Z" fill="#b970bf" transform="matrix(1,0,0,1,0,0)" fill-rule="nonzero"></path></g><g clip-path="url(&quot;#de1a8859a-34d6-4111-8fdc-01bf91df9ce33d576f99-2f49-4fa4-b4b7-b2cadb13de25&quot;)"><path d=" M 13.58330556510669 0.0018400965585637016 C 13.58330556510669 -0.02475557253834231 13.561745743035985 -0.04631865828177808 13.535150073939079 -0.04631865828177808 C 13.508551141169441 -0.04631865828177808 13.486988055426005 -0.02475557253834232 13.486988055426005 0.0018400965585637016 C 13.486988055426005 0.02843902932820218 13.508551141169441 0.05000211507163796 13.535150073939079 0.05000211507163796 C 13.561745743035985 0.05000211507163796 13.58330556510669 0.02843902932820218 13.58330556510669 0.0018400965585637016" fill="#b970bf" transform="matrix(1,0,0,1,0,0)" fill-rule="nonzero"></path></g><g clip-path="url(&quot;#de1a8859a-34d6-4111-8fdc-01bf91df9ce33d576f99-2f49-4fa4-b4b7-b2cadb13de25&quot;)"><path d=" M 11.171908329993181 1.6525307001695384 C 11.171908329993181 1.6259350310726326 11.150345244249745 1.6043719453291967 11.123752838825572 1.6043719453291967 C 11.0971506423832 1.6043719453291967 11.075590820312497 1.6259350310726326 11.075590820312497 1.6525307001695384 C 11.075590820312497 1.6791296329391767 11.0971506423832 1.7006927186826126 11.123752838825572 1.7006927186826126 C 11.150345244249745 1.7006927186826126 11.171908329993181 1.6791296329391767 11.171908329993181 1.6525307001695384" fill="#b970bf" transform="matrix(1,0,0,1,0,0)" fill-rule="nonzero"></path></g><g clip-path="url(&quot;#de1a8859a-34d6-4111-8fdc-01bf91df9ce33d576f99-2f49-4fa4-b4b7-b2cadb13de25&quot;)"><path d=" M 16.003377642343104 0.327828783768695 L 15.46916010745586 0.327828783768695 C 15.340741112778593 0.327828783768695 15.23566716915669 0.4329027273905982 15.23566716915669 0.5613217220678665 L 15.23566716915669 1.8682921045131953 C 15.23566716915669 1.9003935895097794 15.26193973465308 1.926666155006171 15.294041219649664 1.926666155006171 L 16.1784965301493 1.926666155006171 C 16.21060127881862 1.926666155006171 16.236870580642275 1.9003935895097794 16.236870580642275 1.8682921045131953 L 16.236870580642275 0.5613217220678665 C 16.236870580642275 0.4329027273905982 16.131799900693107 0.327828783768695 16.003377642343104 0.327828783768695 M 15.623952841484225 1.0250961446974576 C 15.623952841484225 1.0772692169987388 15.581267265816239 1.1199515289939943 15.52909745718769 1.1199515289939943 C 15.47692764855914 1.1199515289939943 15.434242072891154 1.0772692169987388 15.434242072891154 1.0250961446974576 L 15.434242072891154 0.6408117351399295 C 15.434242072891154 0.5886386628386485 15.47692764855914 0.5459530871706605 15.52909745718769 0.5459530871706605 C 15.581267265816239 0.5459530871706605 15.623952841484225 0.5886386628386485 15.623952841484225 0.6408117351399295 Z" fill="#544ca9" transform="matrix(1,0,0,1,0,0)" fill-rule="nonzero"></path></g><g clip-path="url(&quot;#de1a8859a-34d6-4111-8fdc-01bf91df9ce33d576f99-2f49-4fa4-b4b7-b2cadb13de25&quot;)"><path d=" M 15.806323610101973 0.3270552933310991 L 16.034428224719832 0.3270552933310991 C 16.050482230890857 0.3270552933310991 16.063615249966322 0.3139222742556359 16.063615249966322 0.29786826808461114 L 16.063615249966322 0.19590786824948528 C 16.063615249966322 0.179857125751193 16.050482230890857 0.1667241066757298 16.034428224719832 0.1667241066757298 L 15.806323610101973 0.1667241066757298 C 15.79027286760368 0.1667241066757298 15.777136584855484 0.179857125751193 15.777136584855484 0.19590786824948528 L 15.777136584855484 0.29786826808461114 C 15.777136584855484 0.3139222742556359 15.79027286760368 0.3270552933310991 15.806323610101973 0.3270552933310991" fill="#5dbfb1" transform="matrix(1,0,0,1,0,0)" fill-rule="nonzero"></path></g><g clip-path="url(&quot;#de1a8859a-34d6-4111-8fdc-01bf91df9ce33d576f99-2f49-4fa4-b4b7-b2cadb13de25&quot;)"><path d=" M 16.236870580642275 0.8719678837626516 L 15.935300692816494 0.8719678837626516 C 15.919246686645469 0.8719678837626516 15.906113667570004 0.8875421300420031 15.906113667570004 0.9065758694177738 L 15.906113667570004 1.402213528934479 C 15.906113667570004 1.4212505319829822 15.919246686645469 1.4368215145896013 15.935300692816494 1.4368215145896013 L 16.236870580642275 1.4368215145896013 Z" fill="#f68ccb" transform="matrix(1,0,0,1,0,0)" fill-rule="nonzero"></path></g><g clip-path="url(&quot;#SvgjsClipPath10003d576f99-2f49-4fa4-b4b7-b2cadb13de25&quot;)"><path d=" M 16.23687384431501 1.2604232670722775 L 16.063615249966322 1.2604232670722775 L 16.063615249966322 1.305005036597831 L 16.23687384431501 1.305005036597831 Z M 16.23687384431501 1.154272311448659 L 16.063615249966322 1.154272311448659 L 16.063615249966322 1.1988540809742125 L 16.23687384431501 1.1988540809742125 Z" fill="#b970bf" transform="matrix(1,0,0,1,0,0)" fill-rule="nonzero"></path></g><g clip-path="url(&quot;#ee1a8859a-34d6-4111-8fdc-01bf91df9ce33d576f99-2f49-4fa4-b4b7-b2cadb13de25&quot;)"><path d=" M 14.814761087868105 0.45284703145872807 L 13.56872347533801 0.45284703145872807 C 13.538573666635441 0.45284703145872807 13.514128757869234 0.4772919402249357 13.514128757869234 0.5074417489275027 L 13.514128757869234 0.6018989651506778 C 13.514128757869234 0.6320520375259772 13.538573666635441 0.6564936826194523 13.56872347533801 0.6564936826194523 L 13.591268926573917 0.6564936826194523 L 13.690050509167618 1.7853425983447124 C 13.690050509167618 1.8633965954144882 13.753316805086568 1.926666155006171 13.831370802156343 1.926666155006171 L 14.55208765166791 1.926666155006171 C 14.630125330374023 1.926666155006171 14.6934144720021 1.8633965954144882 14.6934144720021 1.7853425983447124 L 14.792179736232137 0.6564936826194523 L 14.814761087868105 0.6564936826194523 C 14.844914160243404 0.6564936826194523 14.869355805336879 0.6320520375259772 14.869355805336879 0.6018989651506778 L 14.869355805336879 0.5074417489275027 C 14.869355805336879 0.4772919402249357 14.844914160243404 0.45284703145872807 14.814761087868105 0.45284703145872807" fill="#f68ccb" transform="matrix(1,0,0,1,0,0)" fill-rule="nonzero"></path></g><g clip-path="url(&quot;#SvgjsClipPath10003d576f99-2f49-4fa4-b4b7-b2cadb13de25&quot;)"><path d=" M 13.59841941325678 0.7348832622428859 L 14.785067973074101 0.7348832622428859 L 14.792332908576581 0.6547992607335129 L 13.591131632045172 0.6547992607335129 Z" fill="#403b4b" transform="matrix(1,0,0,1,0,0)" fill-rule="nonzero"></path></g><g clip-path="url(&quot;#fe1a8859a-34d6-4111-8fdc-01bf91df9ce33d576f99-2f49-4fa4-b4b7-b2cadb13de25&quot;)"><path d=" M 14.782493155562165 0.7505168303692088 C 14.767751145829592 1.063822885340958 14.509082236072139 1.3132947653383074 14.192133922330953 1.3132947653383074 C 13.875188872262498 1.3132947653383074 13.616506907814117 1.063822885340958 13.601768161754277 0.7505168303692088 C 13.601030571716738 0.7349295293989274 13.588445849660332 0.7222599518514751 13.572842230326387 0.7222599518514751 L 13.559027103649838 0.7222599518514751 C 13.543423484315895 0.7222599518514751 13.530704951677453 0.73491973838073 13.531360949896682 0.7505168303692088 C 13.54621718817489 1.1021449305656321 13.836909254783347 1.3836203853775921 14.192133922330953 1.3836203853775921 C 14.547342271514896 1.3836203853775921 14.838050656487017 1.1021449305656321 14.85290036741976 0.7505168303692088 C 14.853566156657184 0.73491973838073 14.840837833000547 0.7222599518514751 14.825230949993871 0.7222599518514751 L 14.811422350662786 0.7222599518514751 C 14.795799149292447 0.7222599518514751 14.783230745599703 0.7349295293989274 14.782493155562165 0.7505168303692088" fill="#544ca9" transform="matrix(1,0,0,1,0,0)" fill-rule="nonzero"></path></g><g clip-path="url(&quot;#fe1a8859a-34d6-4111-8fdc-01bf91df9ce33d576f99-2f49-4fa4-b4b7-b2cadb13de25&quot;)"><path d=" M 14.192133922330953 1.398098037618833 C 14.074295754652356 1.398098037618833 13.960220601634298 1.3709508078301393 13.862235355187321 1.319613235748371 C 13.834582256125096 1.305116001470735 13.823913309962647 1.2709551389799612 13.838404016894819 1.2433053035904669 C 13.852884932808792 1.215655468200973 13.887013158572241 1.204963676329398 13.914705421707257 1.219467437952499 C 13.996568124855827 1.2623651523480977 14.092497257481346 1.285041150493306 14.192133922330953 1.285041150493306 C 14.29175753248963 1.285041150493306 14.38768666511515 1.2623651523480977 14.469552631936452 1.219467437952499 C 14.497192676307748 1.2049963130567227 14.531363329816719 1.215629358819113 14.545860564094355 1.2433053035904669 C 14.56034148000833 1.2709551389799612 14.54967253384588 1.305116001470735 14.522022698456388 1.319613235748371 C 14.424037452009411 1.3709508078301393 14.309975353682283 1.398098037618833 14.192133922330953 1.398098037618833" fill="#403b4b" transform="matrix(1,0,0,1,0,0)" fill-rule="nonzero"></path></g><g clip-path="url(&quot;#fe1a8859a-34d6-4111-8fdc-01bf91df9ce33d576f99-2f49-4fa4-b4b7-b2cadb13de25&quot;)"><path d=" M 14.109347599799094 0.38611471509789413 C 14.085016919578523 0.38611471509789413 14.065291281583468 0.40584035309294875 14.065291281583468 0.4301710333135199 L 14.065291281583468 1.0393486035201582 C 14.065291281583468 1.0610030721001031 14.08083941848096 1.0809767492228257 14.102412295242594 1.082856624716729 C 14.126583055499273 1.0849682209746372 14.14685372684065 1.065963854653459 14.14685372684065 1.0422304265429299 L 14.14685372684065 0.8145500893802895 C 14.146852861130608 0.8107903107596267 14.148345820567693 0.8071842266552468 14.151004079539499 0.8045253556044704 C 14.153662338511305 0.801866484553694 14.157268078797443 0.8003726949307681 14.161027857517773 0.8003726950304355 L 14.16103764853597 0.8003726950304355 C 14.168866332653879 0.8003744972137518 14.175211779420525 0.8067214050549462 14.175211779213091 0.8145500893802895 L 14.175211779213091 1.0746811245218888 C 14.175211779213091 1.0963421204472987 14.19076970712878 1.1163223249154863 14.212345847563146 1.1181924093911921 C 14.236513344147093 1.1202876872854381 14.256767697124808 1.1012865846369926 14.256767697124808 1.0775564201991958 L 14.256767697124808 0.8145500893802896 C 14.256690071697735 0.8094343145902108 14.259374850932609 0.8046735729617852 14.263792757182944 0.8020930145390802 C 14.268210663433278 0.7995124561163754 14.273676255843315 0.7995124561163753 14.278094162093648 0.8020930145390801 C 14.282512068343982 0.8046735729617849 14.285196847578856 0.8094343145902108 14.285119222151785 0.8145500893802896 L 14.285119222151785 1.0605331032266276 C 14.285119222151785 1.0821940991520371 14.300677150067472 1.1021677762747597 14.32225655417457 1.1040443880959305 C 14.346427314431251 1.1061494570083745 14.366681667408965 1.0871614090508581 14.366681667408965 1.0634312446130614 L 14.366681667408965 0.8145500893802896 C 14.366680801698923 0.8107903107596267 14.368173761136008 0.8071842266552469 14.370832020107814 0.8045253556044704 C 14.373490279079618 0.801866484553694 14.377096019365759 0.8003726949307682 14.380855798086088 0.8003726950304356 L 14.380862325431552 0.8003726950304356 C 14.388691009549461 0.8003744972137518 14.395036456316108 0.8067214050549462 14.395036456108674 0.8145500893802896 L 14.395036456108674 1.0181477854500267 C 14.395036456108674 1.0398087813754366 14.410594384024364 1.0597889858436242 14.432177051804194 1.0616623339920626 C 14.456341284715409 1.0637543482135765 14.476592374020392 1.0447630365833276 14.476592374020392 1.0210361358182634 L 14.476592374020392 0.4301710333135199 C 14.476592374020392 0.40584035309294875 14.456869999698068 0.38611471509789413 14.432536055804766 0.38611471509789413 Z" fill="#5dbfb1" transform="matrix(1,0,0,1,0,0)" fill-rule="nonzero"></path></g></g></g><defs><clipPath id="SvgjsClipPath1001"><path d=" M 11.075590820312497 -0.04631865828177817 h 5.481269817057629 v 1.9905988550250946 h -5.481269817057629 Z"></path></clipPath><clipPath id="ae1a8859a-34d6-4111-8fdc-01bf91df9ce33d576f99-2f49-4fa4-b4b7-b2cadb13de25"><path d=" M 11.075590820312497 1.9442801967433168 L 16.55686390104286 1.9442801967433168 L 16.55686390104286 -0.04631865828177841 L 11.075590820312497 -0.04631865828177841 Z"></path></clipPath><clipPath id="SvgjsClipPath10003d576f99-2f49-4fa4-b4b7-b2cadb13de25"><path d=" M 11.075590820312497 -0.04631865828177817 L 16.556860637370125 -0.04631865828177817 L 16.556860637370125 1.9442801967433163 L 11.075590820312497 1.9442801967433163 Z"></path></clipPath><clipPath id="be1a8859a-34d6-4111-8fdc-01bf91df9ce33d576f99-2f49-4fa4-b4b7-b2cadb13de25"><path d=" M 11.075590820312497 1.9442801967433168 L 16.55686390104286 1.9442801967433168 L 16.55686390104286 -0.04631865828177841 L 11.075590820312497 -0.04631865828177841 Z"></path></clipPath><clipPath id="ce1a8859a-34d6-4111-8fdc-01bf91df9ce33d576f99-2f49-4fa4-b4b7-b2cadb13de25"><path d=" M 11.075590820312497 1.9442801967433168 L 16.55686390104286 1.9442801967433168 L 16.55686390104286 -0.04631865828177841 L 11.075590820312497 -0.04631865828177841 Z"></path></clipPath><clipPath id="de1a8859a-34d6-4111-8fdc-01bf91df9ce33d576f99-2f49-4fa4-b4b7-b2cadb13de25"><path d=" M 11.075590820312497 1.9442801967433168 L 16.55686390104286 1.9442801967433168 L 16.55686390104286 -0.04631865828177841 L 11.075590820312497 -0.04631865828177841 Z"></path></clipPath><clipPath id="ee1a8859a-34d6-4111-8fdc-01bf91df9ce33d576f99-2f49-4fa4-b4b7-b2cadb13de25"><path d=" M 11.075590820312497 1.9442801967433168 L 16.55686390104286 1.9442801967433168 L 16.55686390104286 -0.04631865828177841 L 11.075590820312497 -0.04631865828177841 Z"></path></clipPath><clipPath id="fe1a8859a-34d6-4111-8fdc-01bf91df9ce33d576f99-2f49-4fa4-b4b7-b2cadb13de25"><path d=" M 11.075590820312497 1.9442801967433168 L 16.55686390104286 1.9442801967433168 L 16.55686390104286 -0.04631865828177841 L 11.075590820312497 -0.04631865828177841 Z"></path></clipPath></defs></svg>